<svg width="201" height="122" viewBox="0 0 201 122" fill="none" xmlns="http://www.w3.org/2000/svg">
<g filter="url(#filter0_d_1_3)">
<mask id="path-1-outside-1_1_3" maskUnits="userSpaceOnUse" x="4" y="0" width="193" height="114" fill="black">
<rect fill="white" x="4" width="193" height="114"/>
<path d="M42.1 110.25C35.2 110.25 29.1 108.7 23.8 105.6C18.5 102.5 14.35 98.1 11.35 92.4C8.45 86.7 7 80.1 7 72.6V67.5H10V72.6C10 79.6 11.35 85.7 14.05 90.9C16.75 96.1 20.5 100.15 25.3 103.05C30.2 105.85 35.8 107.25 42.1 107.25C51.5 107.25 58.95 104.15 64.45 97.95C69.95 91.65 72.7 83.2 72.7 72.6V2.99999H75.7V72.6C75.7 80.1 74.3 86.7 71.5 92.4C68.8 98.1 64.9 102.5 59.8 105.6C54.7 108.7 48.8 110.25 42.1 110.25ZM114.725 108V2.99999H141.275C153.075 2.99999 162.325 5.69999 169.025 11.1C175.825 16.4 179.225 23.7 179.225 33C179.225 41.1 176.625 47.75 171.425 52.95C166.225 58.05 159.025 61.2 149.825 62.4L189.575 108H185.525L146.075 62.85C145.275 62.95 144.475 63 143.675 63C142.875 63 142.075 63 141.275 63H117.725V108H114.725ZM141.275 60C152.275 60 160.825 57.6 166.925 52.8C173.125 48 176.225 41.4 176.225 33C176.225 24.6 173.125 18 166.925 13.2C160.825 8.4 152.275 6 141.275 6H117.725V60H141.275Z"/>
</mask>
<path d="M42.1 110.25C35.2 110.25 29.1 108.7 23.8 105.6C18.5 102.5 14.35 98.1 11.35 92.4C8.45 86.7 7 80.1 7 72.6V67.5H10V72.6C10 79.6 11.35 85.7 14.05 90.9C16.75 96.1 20.5 100.15 25.3 103.05C30.2 105.85 35.8 107.25 42.1 107.25C51.5 107.25 58.95 104.15 64.45 97.95C69.95 91.65 72.7 83.2 72.7 72.6V2.99999H75.7V72.6C75.7 80.1 74.3 86.7 71.5 92.4C68.8 98.1 64.9 102.5 59.8 105.6C54.7 108.7 48.8 110.25 42.1 110.25ZM114.725 108V2.99999H141.275C153.075 2.99999 162.325 5.69999 169.025 11.1C175.825 16.4 179.225 23.7 179.225 33C179.225 41.1 176.625 47.75 171.425 52.95C166.225 58.05 159.025 61.2 149.825 62.4L189.575 108H185.525L146.075 62.85C145.275 62.95 144.475 63 143.675 63C142.875 63 142.075 63 141.275 63H117.725V108H114.725ZM141.275 60C152.275 60 160.825 57.6 166.925 52.8C173.125 48 176.225 41.4 176.225 33C176.225 24.6 173.125 18 166.925 13.2C160.825 8.4 152.275 6 141.275 6H117.725V60H141.275Z" fill="black"/>
<path d="M11.35 92.4L8.67617 93.7604L8.68558 93.7789L8.69525 93.7972L11.35 92.4ZM7 67.5V64.5H4V67.5H7ZM10 67.5H13V64.5H10V67.5ZM14.05 90.9L16.7125 89.5175L14.05 90.9ZM25.3 103.05L23.7487 105.618L23.7799 105.637L23.8116 105.655L25.3 103.05ZM64.45 97.95L66.6942 99.9408L66.7021 99.9319L66.71 99.923L64.45 97.95ZM72.7 2.99999V-7.62939e-06H69.7V2.99999H72.7ZM75.7 2.99999H78.7V-7.62939e-06H75.7V2.99999ZM71.5 92.4L68.8073 91.0773L68.7979 91.0965L68.7888 91.1157L71.5 92.4ZM59.8 105.6L58.2418 103.036L59.8 105.6ZM42.1 110.25V107.25C35.665 107.25 30.1003 105.81 25.3147 103.01L23.8 105.6L22.2854 108.19C28.0997 111.59 34.735 113.25 42.1 113.25V110.25ZM23.8 105.6L25.3147 103.01C20.5229 100.208 16.757 96.2321 14.0048 91.0028L11.35 92.4L8.69525 93.7972C11.943 99.9679 16.4771 104.792 22.2854 108.19L23.8 105.6ZM11.35 92.4L14.0238 91.0396C11.3724 85.8281 10 79.7087 10 72.6H7H4C4 80.4913 5.52763 87.5719 8.67617 93.7604L11.35 92.4ZM7 72.6H10V67.5H7H4V72.6H7ZM7 67.5V70.5H10V67.5V64.5H7V67.5ZM10 67.5H7V72.6H10H13V67.5H10ZM10 72.6H7C7 79.9881 8.4265 86.5797 11.3875 92.2824L14.05 90.9L16.7125 89.5175C14.2735 84.8203 13 79.2119 13 72.6H10ZM14.05 90.9L11.3875 92.2824C14.3299 97.9493 18.4546 102.419 23.7487 105.618L25.3 103.05L26.8513 100.482C22.5454 97.8807 19.1701 94.2507 16.7125 89.5175L14.05 90.9ZM25.3 103.05L23.8116 105.655C29.2159 108.743 35.34 110.25 42.1 110.25V107.25V104.25C36.26 104.25 31.1841 102.957 26.7884 100.445L25.3 103.05ZM42.1 107.25V110.25C52.2301 110.25 60.5452 106.872 66.6942 99.9408L64.45 97.95L62.2058 95.9592C57.3548 101.428 50.7699 104.25 42.1 104.25V107.25ZM64.45 97.95L66.71 99.923C72.804 92.9426 75.7 83.7255 75.7 72.6H72.7H69.7C69.7 82.6745 67.096 90.3574 62.1901 95.977L64.45 97.95ZM72.7 72.6H75.7V2.99999H72.7H69.7V72.6H72.7ZM72.7 2.99999V5.99999H75.7V2.99999V-7.62939e-06H72.7V2.99999ZM75.7 2.99999H72.7V72.6H75.7H78.7V2.99999H75.7ZM75.7 72.6H72.7C72.7 79.7239 71.3717 85.857 68.8073 91.0773L71.5 92.4L74.1927 93.7227C77.2283 87.543 78.7 80.4761 78.7 72.6H75.7ZM71.5 92.4L68.7888 91.1157C66.3248 96.3174 62.8116 100.259 58.2418 103.036L59.8 105.6L61.3582 108.164C66.9884 104.741 71.2752 99.8826 74.2112 93.6843L71.5 92.4ZM59.8 105.6L58.2418 103.036C53.6672 105.817 48.3195 107.25 42.1 107.25V110.25V113.25C49.2805 113.25 55.7329 111.583 61.3582 108.164L59.8 105.6ZM114.725 108H111.725V111H114.725V108ZM114.725 2.99999V-7.62939e-06H111.725V2.99999H114.725ZM169.025 11.1L167.142 13.4358L167.161 13.4511L167.18 13.4662L169.025 11.1ZM171.425 52.95L173.525 55.0918L173.536 55.0816L173.546 55.0713L171.425 52.95ZM149.825 62.4L149.437 59.4252L143.883 60.1496L147.563 64.3713L149.825 62.4ZM189.575 108V111H196.17L191.836 106.029L189.575 108ZM185.525 108L183.265 109.974L184.162 111H185.525V108ZM146.075 62.85L148.334 60.8761L147.285 59.6754L145.702 59.8732L146.075 62.85ZM117.725 63V60H114.725V63H117.725ZM117.725 108V111H120.725V108H117.725ZM166.925 52.8L165.088 50.4278L165.079 50.4351L165.069 50.4424L166.925 52.8ZM166.925 13.2L165.069 15.5576L165.079 15.5649L165.088 15.5722L166.925 13.2ZM117.725 6V3H114.725V6H117.725ZM117.725 60H114.725V63H117.725V60ZM114.725 108H117.725V2.99999H114.725H111.725V108H114.725ZM114.725 2.99999V5.99999H141.275V2.99999V-7.62939e-06H114.725V2.99999ZM141.275 2.99999V5.99999C152.642 5.99999 161.143 8.60093 167.142 13.4358L169.025 11.1L170.907 8.76421C163.506 2.79906 153.507 -7.62939e-06 141.275 -7.62939e-06V2.99999ZM169.025 11.1L167.18 13.4662C173.187 18.1481 176.225 24.5408 176.225 33H179.225H182.225C182.225 22.8592 178.462 14.6519 170.869 8.73381L169.025 11.1ZM179.225 33H176.225C176.225 40.393 173.881 46.251 169.303 50.8287L171.425 52.95L173.546 55.0713C179.368 49.249 182.225 41.807 182.225 33H179.225ZM171.425 52.95L169.324 50.8082C164.703 55.3401 158.169 58.2862 149.437 59.4252L149.825 62.4L150.213 65.3748C159.88 64.1138 167.746 60.7599 173.525 55.0918L171.425 52.95ZM149.825 62.4L147.563 64.3713L187.313 109.971L189.575 108L191.836 106.029L152.086 60.4287L149.825 62.4ZM189.575 108V105H185.525V108V111H189.575V108ZM185.525 108L187.784 106.026L148.334 60.8761L146.075 62.85L143.815 64.8239L183.265 109.974L185.525 108ZM146.075 62.85L145.702 59.8732C145.025 59.9579 144.349 60 143.675 60V63V66C144.6 66 145.524 65.9421 146.447 65.8268L146.075 62.85ZM143.675 63V60C143.673 60 143.671 60 143.67 60C143.668 60 143.667 60 143.665 60C143.664 60 143.662 60 143.661 60C143.659 60 143.657 60 143.656 60C143.654 60 143.653 60 143.651 60C143.65 60 143.648 60 143.646 60C143.645 60 143.643 60 143.642 60C143.64 60 143.639 60 143.637 60C143.636 60 143.634 60 143.632 60C143.631 60 143.629 60 143.628 60C143.626 60 143.625 60 143.623 60C143.621 60 143.62 60 143.618 60C143.617 60 143.615 60 143.614 60C143.612 60 143.611 60 143.609 60C143.607 60 143.606 60 143.604 60C143.603 60 143.601 60 143.6 60C143.598 60 143.596 60 143.595 60C143.593 60 143.592 60 143.59 60C143.589 60 143.587 60 143.586 60C143.584 60 143.582 60 143.581 60C143.579 60 143.578 60 143.576 60C143.575 60 143.573 60 143.571 60C143.57 60 143.568 60 143.567 60C143.565 60 143.564 60 143.562 60C143.561 60 143.559 60 143.557 60C143.556 60 143.554 60 143.553 60C143.551 60 143.55 60 143.548 60C143.546 60 143.545 60 143.543 60C143.542 60 143.54 60 143.539 60C143.537 60 143.536 60 143.534 60C143.532 60 143.531 60 143.529 60C143.528 60 143.526 60 143.525 60C143.523 60 143.521 60 143.52 60C143.518 60 143.517 60 143.515 60C143.514 60 143.512 60 143.511 60C143.509 60 143.507 60 143.506 60C143.504 60 143.503 60 143.501 60C143.5 60 143.498 60 143.496 60C143.495 60 143.493 60 143.492 60C143.49 60 143.489 60 143.487 60C143.486 60 143.484 60 143.482 60C143.481 60 143.479 60 143.478 60C143.476 60 143.475 60 143.473 60C143.471 60 143.47 60 143.468 60C143.467 60 143.465 60 143.464 60C143.462 60 143.461 60 143.459 60C143.457 60 143.456 60 143.454 60C143.453 60 143.451 60 143.45 60C143.448 60 143.446 60 143.445 60C143.443 60 143.442 60 143.44 60C143.439 60 143.437 60 143.436 60C143.434 60 143.432 60 143.431 60C143.429 60 143.428 60 143.426 60C143.425 60 143.423 60 143.421 60C143.42 60 143.418 60 143.417 60C143.415 60 143.414 60 143.412 60C143.411 60 143.409 60 143.407 60C143.406 60 143.404 60 143.403 60C143.401 60 143.4 60 143.398 60C143.396 60 143.395 60 143.393 60C143.392 60 143.39 60 143.389 60C143.387 60 143.386 60 143.384 60C143.382 60 143.381 60 143.379 60C143.378 60 143.376 60 143.375 60C143.373 60 143.371 60 143.37 60C143.368 60 143.367 60 143.365 60C143.364 60 143.362 60 143.361 60C143.359 60 143.357 60 143.356 60C143.354 60 143.353 60 143.351 60C143.35 60 143.348 60 143.346 60C143.345 60 143.343 60 143.342 60C143.34 60 143.339 60 143.337 60C143.336 60 143.334 60 143.332 60C143.331 60 143.329 60 143.328 60C143.326 60 143.325 60 143.323 60C143.321 60 143.32 60 143.318 60C143.317 60 143.315 60 143.314 60C143.312 60 143.311 60 143.309 60C143.307 60 143.306 60 143.304 60C143.303 60 143.301 60 143.3 60C143.298 60 143.296 60 143.295 60C143.293 60 143.292 60 143.29 60C143.289 60 143.287 60 143.286 60C143.284 60 143.282 60 143.281 60C143.279 60 143.278 60 143.276 60C143.275 60 143.273 60 143.271 60C143.27 60 143.268 60 143.267 60C143.265 60 143.264 60 143.262 60C143.261 60 143.259 60 143.257 60C143.256 60 143.254 60 143.253 60C143.251 60 143.25 60 143.248 60C143.246 60 143.245 60 143.243 60C143.242 60 143.24 60 143.239 60C143.237 60 143.236 60 143.234 60C143.232 60 143.231 60 143.229 60C143.228 60 143.226 60 143.225 60C143.223 60 143.221 60 143.22 60C143.218 60 143.217 60 143.215 60C143.214 60 143.212 60 143.211 60C143.209 60 143.207 60 143.206 60C143.204 60 143.203 60 143.201 60C143.2 60 143.198 60 143.196 60C143.195 60 143.193 60 143.192 60C143.19 60 143.189 60 143.187 60C143.186 60 143.184 60 143.182 60C143.181 60 143.179 60 143.178 60C143.176 60 143.175 60 143.173 60C143.171 60 143.17 60 143.168 60C143.167 60 143.165 60 143.164 60C143.162 60 143.161 60 143.159 60C143.157 60 143.156 60 143.154 60C143.153 60 143.151 60 143.15 60C143.148 60 143.146 60 143.145 60C143.143 60 143.142 60 143.14 60C143.139 60 143.137 60 143.136 60C143.134 60 143.132 60 143.131 60C143.129 60 143.128 60 143.126 60C143.125 60 143.123 60 143.121 60C143.12 60 143.118 60 143.117 60C143.115 60 143.114 60 143.112 60C143.111 60 143.109 60 143.107 60C143.106 60 143.104 60 143.103 60C143.101 60 143.1 60 143.098 60C143.096 60 143.095 60 143.093 60C143.092 60 143.09 60 143.089 60C143.087 60 143.086 60 143.084 60C143.082 60 143.081 60 143.079 60C143.078 60 143.076 60 143.075 60C143.073 60 143.071 60 143.07 60C143.068 60 143.067 60 143.065 60C143.064 60 143.062 60 143.061 60C143.059 60 143.057 60 143.056 60C143.054 60 143.053 60 143.051 60C143.05 60 143.048 60 143.046 60C143.045 60 143.043 60 143.042 60C143.04 60 143.039 60 143.037 60C143.036 60 143.034 60 143.032 60C143.031 60 143.029 60 143.028 60C143.026 60 143.025 60 143.023 60C143.021 60 143.02 60 143.018 60C143.017 60 143.015 60 143.014 60C143.012 60 143.011 60 143.009 60C143.007 60 143.006 60 143.004 60C143.003 60 143.001 60 143 60C142.998 60 142.996 60 142.995 60C142.993 60 142.992 60 142.99 60C142.989 60 142.987 60 142.986 60C142.984 60 142.982 60 142.981 60C142.979 60 142.978 60 142.976 60C142.975 60 142.973 60 142.971 60C142.97 60 142.968 60 142.967 60C142.965 60 142.964 60 142.962 60C142.961 60 142.959 60 142.957 60C142.956 60 142.954 60 142.953 60C142.951 60 142.95 60 142.948 60C142.946 60 142.945 60 142.943 60C142.942 60 142.94 60 142.939 60C142.937 60 142.936 60 142.934 60C142.932 60 142.931 60 142.929 60C142.928 60 142.926 60 142.925 60C142.923 60 142.921 60 142.92 60C142.918 60 142.917 60 142.915 60C142.914 60 142.912 60 142.911 60C142.909 60 142.907 60 142.906 60C142.904 60 142.903 60 142.901 60C142.9 60 142.898 60 142.896 60C142.895 60 142.893 60 142.892 60C142.89 60 142.889 60 142.887 60C142.886 60 142.884 60 142.882 60C142.881 60 142.879 60 142.878 60C142.876 60 142.875 60 142.873 60C142.871 60 142.87 60 142.868 60C142.867 60 142.865 60 142.864 60C142.862 60 142.861 60 142.859 60C142.857 60 142.856 60 142.854 60C142.853 60 142.851 60 142.85 60C142.848 60 142.846 60 142.845 60C142.843 60 142.842 60 142.84 60C142.839 60 142.837 60 142.836 60C142.834 60 142.832 60 142.831 60C142.829 60 142.828 60 142.826 60C142.825 60 142.823 60 142.821 60C142.82 60 142.818 60 142.817 60C142.815 60 142.814 60 142.812 60C142.811 60 142.809 60 142.807 60C142.806 60 142.804 60 142.803 60C142.801 60 142.8 60 142.798 60C142.796 60 142.795 60 142.793 60C142.792 60 142.79 60 142.789 60C142.787 60 142.786 60 142.784 60C142.782 60 142.781 60 142.779 60C142.778 60 142.776 60 142.775 60C142.773 60 142.771 60 142.77 60C142.768 60 142.767 60 142.765 60C142.764 60 142.762 60 142.761 60C142.759 60 142.757 60 142.756 60C142.754 60 142.753 60 142.751 60C142.75 60 142.748 60 142.746 60C142.745 60 142.743 60 142.742 60C142.74 60 142.739 60 142.737 60C142.736 60 142.734 60 142.732 60C142.731 60 142.729 60 142.728 60C142.726 60 142.725 60 142.723 60C142.721 60 142.72 60 142.718 60C142.717 60 142.715 60 142.714 60C142.712 60 142.711 60 142.709 60C142.707 60 142.706 60 142.704 60C142.703 60 142.701 60 142.7 60C142.698 60 142.696 60 142.695 60C142.693 60 142.692 60 142.69 60C142.689 60 142.687 60 142.686 60C142.684 60 142.682 60 142.681 60C142.679 60 142.678 60 142.676 60C142.675 60 142.673 60 142.671 60C142.67 60 142.668 60 142.667 60C142.665 60 142.664 60 142.662 60C142.661 60 142.659 60 142.657 60C142.656 60 142.654 60 142.653 60C142.651 60 142.65 60 142.648 60C142.646 60 142.645 60 142.643 60C142.642 60 142.64 60 142.639 60C142.637 60 142.636 60 142.634 60C142.632 60 142.631 60 142.629 60C142.628 60 142.626 60 142.625 60C142.623 60 142.621 60 142.62 60C142.618 60 142.617 60 142.615 60C142.614 60 142.612 60 142.611 60C142.609 60 142.607 60 142.606 60C142.604 60 142.603 60 142.601 60C142.6 60 142.598 60 142.596 60C142.595 60 142.593 60 142.592 60C142.59 60 142.589 60 142.587 60C142.586 60 142.584 60 142.582 60C142.581 60 142.579 60 142.578 60C142.576 60 142.575 60 142.573 60C142.571 60 142.57 60 142.568 60C142.567 60 142.565 60 142.564 60C142.562 60 142.561 60 142.559 60C142.557 60 142.556 60 142.554 60C142.553 60 142.551 60 142.55 60C142.548 60 142.546 60 142.545 60C142.543 60 142.542 60 142.54 60C142.539 60 142.537 60 142.536 60C142.534 60 142.532 60 142.531 60C142.529 60 142.528 60 142.526 60C142.525 60 142.523 60 142.521 60C142.52 60 142.518 60 142.517 60C142.515 60 142.514 60 142.512 60C142.511 60 142.509 60 142.507 60C142.506 60 142.504 60 142.503 60C142.501 60 142.5 60 142.498 60C142.496 60 142.495 60 142.493 60C142.492 60 142.49 60 142.489 60C142.487 60 142.486 60 142.484 60C142.482 60 142.481 60 142.479 60C142.478 60 142.476 60 142.475 60C142.473 60 142.471 60 142.47 60C142.468 60 142.467 60 142.465 60C142.464 60 142.462 60 142.461 60C142.459 60 142.457 60 142.456 60C142.454 60 142.453 60 142.451 60C142.45 60 142.448 60 142.446 60C142.445 60 142.443 60 142.442 60C142.44 60 142.439 60 142.437 60C142.436 60 142.434 60 142.432 60C142.431 60 142.429 60 142.428 60C142.426 60 142.425 60 142.423 60C142.421 60 142.42 60 142.418 60C142.417 60 142.415 60 142.414 60C142.412 60 142.411 60 142.409 60C142.407 60 142.406 60 142.404 60C142.403 60 142.401 60 142.4 60C142.398 60 142.396 60 142.395 60C142.393 60 142.392 60 142.39 60C142.389 60 142.387 60 142.386 60C142.384 60 142.382 60 142.381 60C142.379 60 142.378 60 142.376 60C142.375 60 142.373 60 142.371 60C142.37 60 142.368 60 142.367 60C142.365 60 142.364 60 142.362 60C142.361 60 142.359 60 142.357 60C142.356 60 142.354 60 142.353 60C142.351 60 142.35 60 142.348 60C142.346 60 142.345 60 142.343 60C142.342 60 142.34 60 142.339 60C142.337 60 142.336 60 142.334 60C142.332 60 142.331 60 142.329 60C142.328 60 142.326 60 142.325 60C142.323 60 142.321 60 142.32 60C142.318 60 142.317 60 142.315 60C142.314 60 142.312 60 142.311 60C142.309 60 142.307 60 142.306 60C142.304 60 142.303 60 142.301 60C142.3 60 142.298 60 142.296 60C142.295 60 142.293 60 142.292 60C142.29 60 142.289 60 142.287 60C142.286 60 142.284 60 142.282 60C142.281 60 142.279 60 142.278 60C142.276 60 142.275 60 142.273 60C142.271 60 142.27 60 142.268 60C142.267 60 142.265 60 142.264 60C142.262 60 142.261 60 142.259 60C142.257 60 142.256 60 142.254 60C142.253 60 142.251 60 142.25 60C142.248 60 142.246 60 142.245 60C142.243 60 142.242 60 142.24 60C142.239 60 142.237 60 142.236 60C142.234 60 142.232 60 142.231 60C142.229 60 142.228 60 142.226 60C142.225 60 142.223 60 142.221 60C142.22 60 142.218 60 142.217 60C142.215 60 142.214 60 142.212 60C142.211 60 142.209 60 142.207 60C142.206 60 142.204 60 142.203 60C142.201 60 142.2 60 142.198 60C142.196 60 142.195 60 142.193 60C142.192 60 142.19 60 142.189 60C142.187 60 142.186 60 142.184 60C142.182 60 142.181 60 142.179 60C142.178 60 142.176 60 142.175 60C142.173 60 142.171 60 142.17 60C142.168 60 142.167 60 142.165 60C142.164 60 142.162 60 142.161 60C142.159 60 142.157 60 142.156 60C142.154 60 142.153 60 142.151 60C142.15 60 142.148 60 142.146 60C142.145 60 142.143 60 142.142 60C142.14 60 142.139 60 142.137 60C142.136 60 142.134 60 142.132 60C142.131 60 142.129 60 142.128 60C142.126 60 142.125 60 142.123 60C142.121 60 142.12 60 142.118 60C142.117 60 142.115 60 142.114 60C142.112 60 142.111 60 142.109 60C142.107 60 142.106 60 142.104 60C142.103 60 142.101 60 142.1 60C142.098 60 142.096 60 142.095 60C142.093 60 142.092 60 142.09 60C142.089 60 142.087 60 142.086 60C142.084 60 142.082 60 142.081 60C142.079 60 142.078 60 142.076 60C142.075 60 142.073 60 142.071 60C142.07 60 142.068 60 142.067 60C142.065 60 142.064 60 142.062 60C142.061 60 142.059 60 142.057 60C142.056 60 142.054 60 142.053 60C142.051 60 142.05 60 142.048 60C142.046 60 142.045 60 142.043 60C142.042 60 142.04 60 142.039 60C142.037 60 142.036 60 142.034 60C142.032 60 142.031 60 142.029 60C142.028 60 142.026 60 142.025 60C142.023 60 142.021 60 142.02 60C142.018 60 142.017 60 142.015 60C142.014 60 142.012 60 142.011 60C142.009 60 142.007 60 142.006 60C142.004 60 142.003 60 142.001 60C142 60 141.998 60 141.996 60C141.995 60 141.993 60 141.992 60C141.99 60 141.989 60 141.987 60C141.986 60 141.984 60 141.982 60C141.981 60 141.979 60 141.978 60C141.976 60 141.975 60 141.973 60C141.971 60 141.97 60 141.968 60C141.967 60 141.965 60 141.964 60C141.962 60 141.961 60 141.959 60C141.957 60 141.956 60 141.954 60C141.953 60 141.951 60 141.95 60C141.948 60 141.946 60 141.945 60C141.943 60 141.942 60 141.94 60C141.939 60 141.937 60 141.936 60C141.934 60 141.932 60 141.931 60C141.929 60 141.928 60 141.926 60C141.925 60 141.923 60 141.921 60C141.92 60 141.918 60 141.917 60C141.915 60 141.914 60 141.912 60C141.911 60 141.909 60 141.907 60C141.906 60 141.904 60 141.903 60C141.901 60 141.9 60 141.898 60C141.896 60 141.895 60 141.893 60C141.892 60 141.89 60 141.889 60C141.887 60 141.886 60 141.884 60C141.882 60 141.881 60 141.879 60C141.878 60 141.876 60 141.875 60C141.873 60 141.871 60 141.87 60C141.868 60 141.867 60 141.865 60C141.864 60 141.862 60 141.861 60C141.859 60 141.857 60 141.856 60C141.854 60 141.853 60 141.851 60C141.85 60 141.848 60 141.846 60C141.845 60 141.843 60 141.842 60C141.84 60 141.839 60 141.837 60C141.836 60 141.834 60 141.832 60C141.831 60 141.829 60 141.828 60C141.826 60 141.825 60 141.823 60C141.821 60 141.82 60 141.818 60C141.817 60 141.815 60 141.814 60C141.812 60 141.811 60 141.809 60C141.807 60 141.806 60 141.804 60C141.803 60 141.801 60 141.8 60C141.798 60 141.796 60 141.795 60C141.793 60 141.792 60 141.79 60C141.789 60 141.787 60 141.786 60C141.784 60 141.782 60 141.781 60C141.779 60 141.778 60 141.776 60C141.775 60 141.773 60 141.771 60C141.77 60 141.768 60 141.767 60C141.765 60 141.764 60 141.762 60C141.761 60 141.759 60 141.757 60C141.756 60 141.754 60 141.753 60C141.751 60 141.75 60 141.748 60C141.746 60 141.745 60 141.743 60C141.742 60 141.74 60 141.739 60C141.737 60 141.736 60 141.734 60C141.732 60 141.731 60 141.729 60C141.728 60 141.726 60 141.725 60C141.723 60 141.721 60 141.72 60C141.718 60 141.717 60 141.715 60C141.714 60 141.712 60 141.711 60C141.709 60 141.707 60 141.706 60C141.704 60 141.703 60 141.701 60C141.7 60 141.698 60 141.696 60C141.695 60 141.693 60 141.692 60C141.69 60 141.689 60 141.687 60C141.686 60 141.684 60 141.682 60C141.681 60 141.679 60 141.678 60C141.676 60 141.675 60 141.673 60C141.671 60 141.67 60 141.668 60C141.667 60 141.665 60 141.664 60C141.662 60 141.661 60 141.659 60C141.657 60 141.656 60 141.654 60C141.653 60 141.651 60 141.65 60C141.648 60 141.646 60 141.645 60C141.643 60 141.642 60 141.64 60C141.639 60 141.637 60 141.636 60C141.634 60 141.632 60 141.631 60C141.629 60 141.628 60 141.626 60C141.625 60 141.623 60 141.621 60C141.62 60 141.618 60 141.617 60C141.615 60 141.614 60 141.612 60C141.611 60 141.609 60 141.607 60C141.606 60 141.604 60 141.603 60C141.601 60 141.6 60 141.598 60C141.596 60 141.595 60 141.593 60C141.592 60 141.59 60 141.589 60C141.587 60 141.586 60 141.584 60C141.582 60 141.581 60 141.579 60C141.578 60 141.576 60 141.575 60C141.573 60 141.571 60 141.57 60C141.568 60 141.567 60 141.565 60C141.564 60 141.562 60 141.561 60C141.559 60 141.557 60 141.556 60C141.554 60 141.553 60 141.551 60C141.55 60 141.548 60 141.546 60C141.545 60 141.543 60 141.542 60C141.54 60 141.539 60 141.537 60C141.536 60 141.534 60 141.532 60C141.531 60 141.529 60 141.528 60C141.526 60 141.525 60 141.523 60C141.521 60 141.52 60 141.518 60C141.517 60 141.515 60 141.514 60C141.512 60 141.511 60 141.509 60C141.507 60 141.506 60 141.504 60C141.503 60 141.501 60 141.5 60C141.498 60 141.496 60 141.495 60C141.493 60 141.492 60 141.49 60C141.489 60 141.487 60 141.486 60C141.484 60 141.482 60 141.481 60C141.479 60 141.478 60 141.476 60C141.475 60 141.473 60 141.471 60C141.47 60 141.468 60 141.467 60C141.465 60 141.464 60 141.462 60C141.461 60 141.459 60 141.457 60C141.456 60 141.454 60 141.453 60C141.451 60 141.45 60 141.448 60C141.446 60 141.445 60 141.443 60C141.442 60 141.44 60 141.439 60C141.437 60 141.436 60 141.434 60C141.432 60 141.431 60 141.429 60C141.428 60 141.426 60 141.425 60C141.423 60 141.421 60 141.42 60C141.418 60 141.417 60 141.415 60C141.414 60 141.412 60 141.411 60C141.409 60 141.407 60 141.406 60C141.404 60 141.403 60 141.401 60C141.4 60 141.398 60 141.396 60C141.395 60 141.393 60 141.392 60C141.39 60 141.389 60 141.387 60C141.386 60 141.384 60 141.382 60C141.381 60 141.379 60 141.378 60C141.376 60 141.375 60 141.373 60C141.371 60 141.37 60 141.368 60C141.367 60 141.365 60 141.364 60C141.362 60 141.361 60 141.359 60C141.357 60 141.356 60 141.354 60C141.353 60 141.351 60 141.35 60C141.348 60 141.346 60 141.345 60C141.343 60 141.342 60 141.34 60C141.339 60 141.337 60 141.336 60C141.334 60 141.332 60 141.331 60C141.329 60 141.328 60 141.326 60C141.325 60 141.323 60 141.321 60C141.32 60 141.318 60 141.317 60C141.315 60 141.314 60 141.312 60C141.311 60 141.309 60 141.307 60C141.306 60 141.304 60 141.303 60C141.301 60 141.3 60 141.298 60C141.296 60 141.295 60 141.293 60C141.292 60 141.29 60 141.289 60C141.287 60 141.286 60 141.284 60C141.282 60 141.281 60 141.279 60C141.278 60 141.276 60 141.275 60V63V66C141.276 66 141.278 66 141.279 66C141.281 66 141.282 66 141.284 66C141.286 66 141.287 66 141.289 66C141.29 66 141.292 66 141.293 66C141.295 66 141.296 66 141.298 66C141.3 66 141.301 66 141.303 66C141.304 66 141.306 66 141.307 66C141.309 66 141.311 66 141.312 66C141.314 66 141.315 66 141.317 66C141.318 66 141.32 66 141.321 66C141.323 66 141.325 66 141.326 66C141.328 66 141.329 66 141.331 66C141.332 66 141.334 66 141.336 66C141.337 66 141.339 66 141.34 66C141.342 66 141.343 66 141.345 66C141.346 66 141.348 66 141.35 66C141.351 66 141.353 66 141.354 66C141.356 66 141.357 66 141.359 66C141.361 66 141.362 66 141.364 66C141.365 66 141.367 66 141.368 66C141.37 66 141.371 66 141.373 66C141.375 66 141.376 66 141.378 66C141.379 66 141.381 66 141.382 66C141.384 66 141.386 66 141.387 66C141.389 66 141.39 66 141.392 66C141.393 66 141.395 66 141.396 66C141.398 66 141.4 66 141.401 66C141.403 66 141.404 66 141.406 66C141.407 66 141.409 66 141.411 66C141.412 66 141.414 66 141.415 66C141.417 66 141.418 66 141.42 66C141.421 66 141.423 66 141.425 66C141.426 66 141.428 66 141.429 66C141.431 66 141.432 66 141.434 66C141.436 66 141.437 66 141.439 66C141.44 66 141.442 66 141.443 66C141.445 66 141.446 66 141.448 66C141.45 66 141.451 66 141.453 66C141.454 66 141.456 66 141.457 66C141.459 66 141.461 66 141.462 66C141.464 66 141.465 66 141.467 66C141.468 66 141.47 66 141.471 66C141.473 66 141.475 66 141.476 66C141.478 66 141.479 66 141.481 66C141.482 66 141.484 66 141.486 66C141.487 66 141.489 66 141.49 66C141.492 66 141.493 66 141.495 66C141.496 66 141.498 66 141.5 66C141.501 66 141.503 66 141.504 66C141.506 66 141.507 66 141.509 66C141.511 66 141.512 66 141.514 66C141.515 66 141.517 66 141.518 66C141.52 66 141.521 66 141.523 66C141.525 66 141.526 66 141.528 66C141.529 66 141.531 66 141.532 66C141.534 66 141.536 66 141.537 66C141.539 66 141.54 66 141.542 66C141.543 66 141.545 66 141.546 66C141.548 66 141.55 66 141.551 66C141.553 66 141.554 66 141.556 66C141.557 66 141.559 66 141.561 66C141.562 66 141.564 66 141.565 66C141.567 66 141.568 66 141.57 66C141.571 66 141.573 66 141.575 66C141.576 66 141.578 66 141.579 66C141.581 66 141.582 66 141.584 66C141.586 66 141.587 66 141.589 66C141.59 66 141.592 66 141.593 66C141.595 66 141.596 66 141.598 66C141.6 66 141.601 66 141.603 66C141.604 66 141.606 66 141.607 66C141.609 66 141.611 66 141.612 66C141.614 66 141.615 66 141.617 66C141.618 66 141.62 66 141.621 66C141.623 66 141.625 66 141.626 66C141.628 66 141.629 66 141.631 66C141.632 66 141.634 66 141.636 66C141.637 66 141.639 66 141.64 66C141.642 66 141.643 66 141.645 66C141.646 66 141.648 66 141.65 66C141.651 66 141.653 66 141.654 66C141.656 66 141.657 66 141.659 66C141.661 66 141.662 66 141.664 66C141.665 66 141.667 66 141.668 66C141.67 66 141.671 66 141.673 66C141.675 66 141.676 66 141.678 66C141.679 66 141.681 66 141.682 66C141.684 66 141.686 66 141.687 66C141.689 66 141.69 66 141.692 66C141.693 66 141.695 66 141.696 66C141.698 66 141.7 66 141.701 66C141.703 66 141.704 66 141.706 66C141.707 66 141.709 66 141.711 66C141.712 66 141.714 66 141.715 66C141.717 66 141.718 66 141.72 66C141.721 66 141.723 66 141.725 66C141.726 66 141.728 66 141.729 66C141.731 66 141.732 66 141.734 66C141.736 66 141.737 66 141.739 66C141.74 66 141.742 66 141.743 66C141.745 66 141.746 66 141.748 66C141.75 66 141.751 66 141.753 66C141.754 66 141.756 66 141.757 66C141.759 66 141.761 66 141.762 66C141.764 66 141.765 66 141.767 66C141.768 66 141.77 66 141.771 66C141.773 66 141.775 66 141.776 66C141.778 66 141.779 66 141.781 66C141.782 66 141.784 66 141.786 66C141.787 66 141.789 66 141.79 66C141.792 66 141.793 66 141.795 66C141.796 66 141.798 66 141.8 66C141.801 66 141.803 66 141.804 66C141.806 66 141.807 66 141.809 66C141.811 66 141.812 66 141.814 66C141.815 66 141.817 66 141.818 66C141.82 66 141.821 66 141.823 66C141.825 66 141.826 66 141.828 66C141.829 66 141.831 66 141.832 66C141.834 66 141.836 66 141.837 66C141.839 66 141.84 66 141.842 66C141.843 66 141.845 66 141.846 66C141.848 66 141.85 66 141.851 66C141.853 66 141.854 66 141.856 66C141.857 66 141.859 66 141.861 66C141.862 66 141.864 66 141.865 66C141.867 66 141.868 66 141.87 66C141.871 66 141.873 66 141.875 66C141.876 66 141.878 66 141.879 66C141.881 66 141.882 66 141.884 66C141.886 66 141.887 66 141.889 66C141.89 66 141.892 66 141.893 66C141.895 66 141.896 66 141.898 66C141.9 66 141.901 66 141.903 66C141.904 66 141.906 66 141.907 66C141.909 66 141.911 66 141.912 66C141.914 66 141.915 66 141.917 66C141.918 66 141.92 66 141.921 66C141.923 66 141.925 66 141.926 66C141.928 66 141.929 66 141.931 66C141.932 66 141.934 66 141.936 66C141.937 66 141.939 66 141.94 66C141.942 66 141.943 66 141.945 66C141.946 66 141.948 66 141.95 66C141.951 66 141.953 66 141.954 66C141.956 66 141.957 66 141.959 66C141.961 66 141.962 66 141.964 66C141.965 66 141.967 66 141.968 66C141.97 66 141.971 66 141.973 66C141.975 66 141.976 66 141.978 66C141.979 66 141.981 66 141.982 66C141.984 66 141.986 66 141.987 66C141.989 66 141.99 66 141.992 66C141.993 66 141.995 66 141.996 66C141.998 66 142 66 142.001 66C142.003 66 142.004 66 142.006 66C142.007 66 142.009 66 142.011 66C142.012 66 142.014 66 142.015 66C142.017 66 142.018 66 142.02 66C142.021 66 142.023 66 142.025 66C142.026 66 142.028 66 142.029 66C142.031 66 142.032 66 142.034 66C142.036 66 142.037 66 142.039 66C142.04 66 142.042 66 142.043 66C142.045 66 142.046 66 142.048 66C142.05 66 142.051 66 142.053 66C142.054 66 142.056 66 142.057 66C142.059 66 142.061 66 142.062 66C142.064 66 142.065 66 142.067 66C142.068 66 142.07 66 142.071 66C142.073 66 142.075 66 142.076 66C142.078 66 142.079 66 142.081 66C142.082 66 142.084 66 142.086 66C142.087 66 142.089 66 142.09 66C142.092 66 142.093 66 142.095 66C142.096 66 142.098 66 142.1 66C142.101 66 142.103 66 142.104 66C142.106 66 142.107 66 142.109 66C142.111 66 142.112 66 142.114 66C142.115 66 142.117 66 142.118 66C142.12 66 142.121 66 142.123 66C142.125 66 142.126 66 142.128 66C142.129 66 142.131 66 142.132 66C142.134 66 142.136 66 142.137 66C142.139 66 142.14 66 142.142 66C142.143 66 142.145 66 142.146 66C142.148 66 142.15 66 142.151 66C142.153 66 142.154 66 142.156 66C142.157 66 142.159 66 142.161 66C142.162 66 142.164 66 142.165 66C142.167 66 142.168 66 142.17 66C142.171 66 142.173 66 142.175 66C142.176 66 142.178 66 142.179 66C142.181 66 142.182 66 142.184 66C142.186 66 142.187 66 142.189 66C142.19 66 142.192 66 142.193 66C142.195 66 142.196 66 142.198 66C142.2 66 142.201 66 142.203 66C142.204 66 142.206 66 142.207 66C142.209 66 142.211 66 142.212 66C142.214 66 142.215 66 142.217 66C142.218 66 142.22 66 142.221 66C142.223 66 142.225 66 142.226 66C142.228 66 142.229 66 142.231 66C142.232 66 142.234 66 142.236 66C142.237 66 142.239 66 142.24 66C142.242 66 142.243 66 142.245 66C142.246 66 142.248 66 142.25 66C142.251 66 142.253 66 142.254 66C142.256 66 142.257 66 142.259 66C142.261 66 142.262 66 142.264 66C142.265 66 142.267 66 142.268 66C142.27 66 142.271 66 142.273 66C142.275 66 142.276 66 142.278 66C142.279 66 142.281 66 142.282 66C142.284 66 142.286 66 142.287 66C142.289 66 142.29 66 142.292 66C142.293 66 142.295 66 142.296 66C142.298 66 142.3 66 142.301 66C142.303 66 142.304 66 142.306 66C142.307 66 142.309 66 142.311 66C142.312 66 142.314 66 142.315 66C142.317 66 142.318 66 142.32 66C142.321 66 142.323 66 142.325 66C142.326 66 142.328 66 142.329 66C142.331 66 142.332 66 142.334 66C142.336 66 142.337 66 142.339 66C142.34 66 142.342 66 142.343 66C142.345 66 142.346 66 142.348 66C142.35 66 142.351 66 142.353 66C142.354 66 142.356 66 142.357 66C142.359 66 142.361 66 142.362 66C142.364 66 142.365 66 142.367 66C142.368 66 142.37 66 142.371 66C142.373 66 142.375 66 142.376 66C142.378 66 142.379 66 142.381 66C142.382 66 142.384 66 142.386 66C142.387 66 142.389 66 142.39 66C142.392 66 142.393 66 142.395 66C142.396 66 142.398 66 142.4 66C142.401 66 142.403 66 142.404 66C142.406 66 142.407 66 142.409 66C142.411 66 142.412 66 142.414 66C142.415 66 142.417 66 142.418 66C142.42 66 142.421 66 142.423 66C142.425 66 142.426 66 142.428 66C142.429 66 142.431 66 142.432 66C142.434 66 142.436 66 142.437 66C142.439 66 142.44 66 142.442 66C142.443 66 142.445 66 142.446 66C142.448 66 142.45 66 142.451 66C142.453 66 142.454 66 142.456 66C142.457 66 142.459 66 142.461 66C142.462 66 142.464 66 142.465 66C142.467 66 142.468 66 142.47 66C142.471 66 142.473 66 142.475 66C142.476 66 142.478 66 142.479 66C142.481 66 142.482 66 142.484 66C142.486 66 142.487 66 142.489 66C142.49 66 142.492 66 142.493 66C142.495 66 142.496 66 142.498 66C142.5 66 142.501 66 142.503 66C142.504 66 142.506 66 142.507 66C142.509 66 142.511 66 142.512 66C142.514 66 142.515 66 142.517 66C142.518 66 142.52 66 142.521 66C142.523 66 142.525 66 142.526 66C142.528 66 142.529 66 142.531 66C142.532 66 142.534 66 142.536 66C142.537 66 142.539 66 142.54 66C142.542 66 142.543 66 142.545 66C142.546 66 142.548 66 142.55 66C142.551 66 142.553 66 142.554 66C142.556 66 142.557 66 142.559 66C142.561 66 142.562 66 142.564 66C142.565 66 142.567 66 142.568 66C142.57 66 142.571 66 142.573 66C142.575 66 142.576 66 142.578 66C142.579 66 142.581 66 142.582 66C142.584 66 142.586 66 142.587 66C142.589 66 142.59 66 142.592 66C142.593 66 142.595 66 142.596 66C142.598 66 142.6 66 142.601 66C142.603 66 142.604 66 142.606 66C142.607 66 142.609 66 142.611 66C142.612 66 142.614 66 142.615 66C142.617 66 142.618 66 142.62 66C142.621 66 142.623 66 142.625 66C142.626 66 142.628 66 142.629 66C142.631 66 142.632 66 142.634 66C142.636 66 142.637 66 142.639 66C142.64 66 142.642 66 142.643 66C142.645 66 142.646 66 142.648 66C142.65 66 142.651 66 142.653 66C142.654 66 142.656 66 142.657 66C142.659 66 142.661 66 142.662 66C142.664 66 142.665 66 142.667 66C142.668 66 142.67 66 142.671 66C142.673 66 142.675 66 142.676 66C142.678 66 142.679 66 142.681 66C142.682 66 142.684 66 142.686 66C142.687 66 142.689 66 142.69 66C142.692 66 142.693 66 142.695 66C142.696 66 142.698 66 142.7 66C142.701 66 142.703 66 142.704 66C142.706 66 142.707 66 142.709 66C142.711 66 142.712 66 142.714 66C142.715 66 142.717 66 142.718 66C142.72 66 142.721 66 142.723 66C142.725 66 142.726 66 142.728 66C142.729 66 142.731 66 142.732 66C142.734 66 142.736 66 142.737 66C142.739 66 142.74 66 142.742 66C142.743 66 142.745 66 142.746 66C142.748 66 142.75 66 142.751 66C142.753 66 142.754 66 142.756 66C142.757 66 142.759 66 142.761 66C142.762 66 142.764 66 142.765 66C142.767 66 142.768 66 142.77 66C142.771 66 142.773 66 142.775 66C142.776 66 142.778 66 142.779 66C142.781 66 142.782 66 142.784 66C142.786 66 142.787 66 142.789 66C142.79 66 142.792 66 142.793 66C142.795 66 142.796 66 142.798 66C142.8 66 142.801 66 142.803 66C142.804 66 142.806 66 142.807 66C142.809 66 142.811 66 142.812 66C142.814 66 142.815 66 142.817 66C142.818 66 142.82 66 142.821 66C142.823 66 142.825 66 142.826 66C142.828 66 142.829 66 142.831 66C142.832 66 142.834 66 142.836 66C142.837 66 142.839 66 142.84 66C142.842 66 142.843 66 142.845 66C142.846 66 142.848 66 142.85 66C142.851 66 142.853 66 142.854 66C142.856 66 142.857 66 142.859 66C142.861 66 142.862 66 142.864 66C142.865 66 142.867 66 142.868 66C142.87 66 142.871 66 142.873 66C142.875 66 142.876 66 142.878 66C142.879 66 142.881 66 142.882 66C142.884 66 142.886 66 142.887 66C142.889 66 142.89 66 142.892 66C142.893 66 142.895 66 142.896 66C142.898 66 142.9 66 142.901 66C142.903 66 142.904 66 142.906 66C142.907 66 142.909 66 142.911 66C142.912 66 142.914 66 142.915 66C142.917 66 142.918 66 142.92 66C142.921 66 142.923 66 142.925 66C142.926 66 142.928 66 142.929 66C142.931 66 142.932 66 142.934 66C142.936 66 142.937 66 142.939 66C142.94 66 142.942 66 142.943 66C142.945 66 142.946 66 142.948 66C142.95 66 142.951 66 142.953 66C142.954 66 142.956 66 142.957 66C142.959 66 142.961 66 142.962 66C142.964 66 142.965 66 142.967 66C142.968 66 142.97 66 142.971 66C142.973 66 142.975 66 142.976 66C142.978 66 142.979 66 142.981 66C142.982 66 142.984 66 142.986 66C142.987 66 142.989 66 142.99 66C142.992 66 142.993 66 142.995 66C142.996 66 142.998 66 143 66C143.001 66 143.003 66 143.004 66C143.006 66 143.007 66 143.009 66C143.011 66 143.012 66 143.014 66C143.015 66 143.017 66 143.018 66C143.02 66 143.021 66 143.023 66C143.025 66 143.026 66 143.028 66C143.029 66 143.031 66 143.032 66C143.034 66 143.036 66 143.037 66C143.039 66 143.04 66 143.042 66C143.043 66 143.045 66 143.046 66C143.048 66 143.05 66 143.051 66C143.053 66 143.054 66 143.056 66C143.057 66 143.059 66 143.061 66C143.062 66 143.064 66 143.065 66C143.067 66 143.068 66 143.07 66C143.071 66 143.073 66 143.075 66C143.076 66 143.078 66 143.079 66C143.081 66 143.082 66 143.084 66C143.086 66 143.087 66 143.089 66C143.09 66 143.092 66 143.093 66C143.095 66 143.096 66 143.098 66C143.1 66 143.101 66 143.103 66C143.104 66 143.106 66 143.107 66C143.109 66 143.111 66 143.112 66C143.114 66 143.115 66 143.117 66C143.118 66 143.12 66 143.121 66C143.123 66 143.125 66 143.126 66C143.128 66 143.129 66 143.131 66C143.132 66 143.134 66 143.136 66C143.137 66 143.139 66 143.14 66C143.142 66 143.143 66 143.145 66C143.146 66 143.148 66 143.15 66C143.151 66 143.153 66 143.154 66C143.156 66 143.157 66 143.159 66C143.161 66 143.162 66 143.164 66C143.165 66 143.167 66 143.168 66C143.17 66 143.171 66 143.173 66C143.175 66 143.176 66 143.178 66C143.179 66 143.181 66 143.182 66C143.184 66 143.186 66 143.187 66C143.189 66 143.19 66 143.192 66C143.193 66 143.195 66 143.196 66C143.198 66 143.2 66 143.201 66C143.203 66 143.204 66 143.206 66C143.207 66 143.209 66 143.211 66C143.212 66 143.214 66 143.215 66C143.217 66 143.218 66 143.22 66C143.221 66 143.223 66 143.225 66C143.226 66 143.228 66 143.229 66C143.231 66 143.232 66 143.234 66C143.236 66 143.237 66 143.239 66C143.24 66 143.242 66 143.243 66C143.245 66 143.246 66 143.248 66C143.25 66 143.251 66 143.253 66C143.254 66 143.256 66 143.257 66C143.259 66 143.261 66 143.262 66C143.264 66 143.265 66 143.267 66C143.268 66 143.27 66 143.271 66C143.273 66 143.275 66 143.276 66C143.278 66 143.279 66 143.281 66C143.282 66 143.284 66 143.286 66C143.287 66 143.289 66 143.29 66C143.292 66 143.293 66 143.295 66C143.296 66 143.298 66 143.3 66C143.301 66 143.303 66 143.304 66C143.306 66 143.307 66 143.309 66C143.311 66 143.312 66 143.314 66C143.315 66 143.317 66 143.318 66C143.32 66 143.321 66 143.323 66C143.325 66 143.326 66 143.328 66C143.329 66 143.331 66 143.332 66C143.334 66 143.336 66 143.337 66C143.339 66 143.34 66 143.342 66C143.343 66 143.345 66 143.346 66C143.348 66 143.35 66 143.351 66C143.353 66 143.354 66 143.356 66C143.357 66 143.359 66 143.361 66C143.362 66 143.364 66 143.365 66C143.367 66 143.368 66 143.37 66C143.371 66 143.373 66 143.375 66C143.376 66 143.378 66 143.379 66C143.381 66 143.382 66 143.384 66C143.386 66 143.387 66 143.389 66C143.39 66 143.392 66 143.393 66C143.395 66 143.396 66 143.398 66C143.4 66 143.401 66 143.403 66C143.404 66 143.406 66 143.407 66C143.409 66 143.411 66 143.412 66C143.414 66 143.415 66 143.417 66C143.418 66 143.42 66 143.421 66C143.423 66 143.425 66 143.426 66C143.428 66 143.429 66 143.431 66C143.432 66 143.434 66 143.436 66C143.437 66 143.439 66 143.44 66C143.442 66 143.443 66 143.445 66C143.446 66 143.448 66 143.45 66C143.451 66 143.453 66 143.454 66C143.456 66 143.457 66 143.459 66C143.461 66 143.462 66 143.464 66C143.465 66 143.467 66 143.468 66C143.47 66 143.471 66 143.473 66C143.475 66 143.476 66 143.478 66C143.479 66 143.481 66 143.482 66C143.484 66 143.486 66 143.487 66C143.489 66 143.49 66 143.492 66C143.493 66 143.495 66 143.496 66C143.498 66 143.5 66 143.501 66C143.503 66 143.504 66 143.506 66C143.507 66 143.509 66 143.511 66C143.512 66 143.514 66 143.515 66C143.517 66 143.518 66 143.52 66C143.521 66 143.523 66 143.525 66C143.526 66 143.528 66 143.529 66C143.531 66 143.532 66 143.534 66C143.536 66 143.537 66 143.539 66C143.54 66 143.542 66 143.543 66C143.545 66 143.546 66 143.548 66C143.55 66 143.551 66 143.553 66C143.554 66 143.556 66 143.557 66C143.559 66 143.561 66 143.562 66C143.564 66 143.565 66 143.567 66C143.568 66 143.57 66 143.571 66C143.573 66 143.575 66 143.576 66C143.578 66 143.579 66 143.581 66C143.582 66 143.584 66 143.586 66C143.587 66 143.589 66 143.59 66C143.592 66 143.593 66 143.595 66C143.596 66 143.598 66 143.6 66C143.601 66 143.603 66 143.604 66C143.606 66 143.607 66 143.609 66C143.611 66 143.612 66 143.614 66C143.615 66 143.617 66 143.618 66C143.62 66 143.621 66 143.623 66C143.625 66 143.626 66 143.628 66C143.629 66 143.631 66 143.632 66C143.634 66 143.636 66 143.637 66C143.639 66 143.64 66 143.642 66C143.643 66 143.645 66 143.646 66C143.648 66 143.65 66 143.651 66C143.653 66 143.654 66 143.656 66C143.657 66 143.659 66 143.661 66C143.662 66 143.664 66 143.665 66C143.667 66 143.668 66 143.67 66C143.671 66 143.673 66 143.675 66V63ZM141.275 63V60H117.725V63V66H141.275V63ZM117.725 63H114.725V108H117.725H120.725V63H117.725ZM117.725 108V105H114.725V108V111H117.725V108ZM141.275 60V63C152.673 63 161.97 60.5164 168.78 55.1576L166.925 52.8L165.069 50.4424C159.68 54.6836 151.876 57 141.275 57V60ZM166.925 52.8L168.761 55.1722C175.753 49.7587 179.225 42.2516 179.225 33H176.225H173.225C173.225 40.5484 170.496 46.2412 165.088 50.4278L166.925 52.8ZM176.225 33H179.225C179.225 23.7484 175.753 16.2412 168.761 10.8278L166.925 13.2L165.088 15.5722C170.496 19.7587 173.225 25.4516 173.225 33H176.225ZM166.925 13.2L168.78 10.8424C161.97 5.48356 152.673 3 141.275 3V6V9C151.876 9 159.68 11.3164 165.069 15.5576L166.925 13.2ZM141.275 6V3H117.725V6V9H141.275V6ZM117.725 6H114.725V60H117.725H120.725V6H117.725ZM117.725 60V63H141.275V60V57H117.725V60Z" fill="black" mask="url(#path-1-outside-1_1_3)"/>
</g>
<defs>
<filter id="filter0_d_1_3" x="0" y="-7.62939e-06" width="200.17" height="121.25" filterUnits="userSpaceOnUse" color-interpolation-filters="sRGB">
<feFlood flood-opacity="0" result="BackgroundImageFix"/>
<feColorMatrix in="SourceAlpha" type="matrix" values="0 0 0 0 0 0 0 0 0 0 0 0 0 0 0 0 0 0 127 0" result="hardAlpha"/>
<feOffset dy="4"/>
<feGaussianBlur stdDeviation="2"/>
<feComposite in2="hardAlpha" operator="out"/>
<feColorMatrix type="matrix" values="0 0 0 0 0 0 0 0 0 0 0 0 0 0 0 0 0 0 0.25 0"/>
<feBlend mode="normal" in2="BackgroundImageFix" result="effect1_dropShadow_1_3"/>
<feBlend mode="normal" in="SourceGraphic" in2="effect1_dropShadow_1_3" result="shape"/>
</filter>
</defs>
</svg>
