<svg width="93" height="119" viewBox="0 0 93 119" fill="none" xmlns="http://www.w3.org/2000/svg">
<g filter="url(#filter0_d_1_3)">
<mask id="path-1-outside-1_1_3" maskUnits="userSpaceOnUse" x="4" y="0" width="85" height="111" fill="black">
<rect fill="white" x="4" width="85" height="111"/>
<path d="M7 108V2.99999H33.55C45.35 2.99999 54.6 5.69999 61.3 11.1C68.1 16.4 71.5 23.7 71.5 33C71.5 41.1 68.9 47.75 63.7 52.95C58.5 58.05 51.3 61.2 42.1 62.4L81.85 108H77.8L38.35 62.85C37.55 62.95 36.75 63 35.95 63C35.15 63 34.35 63 33.55 63H10V108H7ZM33.55 60C44.55 60 53.1 57.6 59.2 52.8C65.4 48 68.5 41.4 68.5 33C68.5 24.6 65.4 18 59.2 13.2C53.1 8.4 44.55 6 33.55 6H10V60H33.55Z"/>
</mask>
<path d="M7 108V2.99999H33.55C45.35 2.99999 54.6 5.69999 61.3 11.1C68.1 16.4 71.5 23.7 71.5 33C71.5 41.1 68.9 47.75 63.7 52.95C58.5 58.05 51.3 61.2 42.1 62.4L81.85 108H77.8L38.35 62.85C37.55 62.95 36.75 63 35.95 63C35.15 63 34.35 63 33.55 63H10V108H7ZM33.55 60C44.55 60 53.1 57.6 59.2 52.8C65.4 48 68.5 41.4 68.5 33C68.5 24.6 65.4 18 59.2 13.2C53.1 8.4 44.55 6 33.55 6H10V60H33.55Z" fill="black"/>
<path d="M7 108H4V111H7V108ZM7 2.99999V-7.15256e-06H4V2.99999H7ZM61.3 11.1L59.4174 13.4358L59.4365 13.4511L59.4558 13.4662L61.3 11.1ZM63.7 52.95L65.8006 55.0918L65.811 55.0816L65.8213 55.0713L63.7 52.95ZM42.1 62.4L41.712 59.4252L36.1585 60.1496L39.8386 64.3713L42.1 62.4ZM81.85 108V111H88.445L84.1114 106.029L81.85 108ZM77.8 108L75.5409 109.974L76.4374 111H77.8V108ZM38.35 62.85L40.6091 60.8761L39.56 59.6754L37.9779 59.8732L38.35 62.85ZM10 63V60H7V63H10ZM10 108V111H13V108H10ZM59.2 52.8L57.3635 50.4278L57.3541 50.4351L57.3448 50.4424L59.2 52.8ZM59.2 13.2L57.3448 15.5576L57.3541 15.5649L57.3635 15.5722L59.2 13.2ZM10 6V3H7V6H10ZM10 60H7V63H10V60ZM7 108H10V2.99999H7H4V108H7ZM7 2.99999V5.99999H33.55V2.99999V-7.15256e-06H7V2.99999ZM33.55 2.99999V5.99999C44.9173 5.99999 53.4186 8.60093 59.4174 13.4358L61.3 11.1L63.1826 8.76421C55.7814 2.79906 45.7827 -7.15256e-06 33.55 -7.15256e-06V2.99999ZM61.3 11.1L59.4558 13.4662C65.4627 18.1481 68.5 24.5408 68.5 33H71.5H74.5C74.5 22.8592 70.7373 14.6519 63.1442 8.73381L61.3 11.1ZM71.5 33H68.5C68.5 40.393 66.1563 46.251 61.5787 50.8287L63.7 52.95L65.8213 55.0713C71.6437 49.249 74.5 41.807 74.5 33H71.5ZM63.7 52.95L61.5994 50.8082C56.9786 55.3401 50.4444 58.2862 41.712 59.4252L42.1 62.4L42.488 65.3748C52.1556 64.1138 60.0214 60.7599 65.8006 55.0918L63.7 52.95ZM42.1 62.4L39.8386 64.3713L79.5886 109.971L81.85 108L84.1114 106.029L44.3614 60.4287L42.1 62.4ZM81.85 108V105H77.8V108V111H81.85V108ZM77.8 108L80.0591 106.026L40.6091 60.8761L38.35 62.85L36.0909 64.8239L75.5409 109.974L77.8 108ZM38.35 62.85L37.9779 59.8732C37.3004 59.9579 36.6246 60 35.95 60V63V66C36.8754 66 37.7996 65.9421 38.7221 65.8268L38.35 62.85ZM35.95 63V60C35.9484 60 35.9469 60 35.9453 60C35.9438 60 35.9422 60 35.9406 60C35.9391 60 35.9375 60 35.9359 60C35.9344 60 35.9328 60 35.9313 60C35.9297 60 35.9281 60 35.9266 60C35.925 60 35.9234 60 35.9219 60C35.9203 60 35.9188 60 35.9172 60C35.9156 60 35.9141 60 35.9125 60C35.9109 60 35.9094 60 35.9078 60C35.9063 60 35.9047 60 35.9031 60C35.9016 60 35.9 60 35.8984 60C35.8969 60 35.8953 60 35.8938 60C35.8922 60 35.8906 60 35.8891 60C35.8875 60 35.8859 60 35.8844 60C35.8828 60 35.8813 60 35.8797 60C35.8781 60 35.8766 60 35.875 60C35.8734 60 35.8719 60 35.8703 60C35.8688 60 35.8672 60 35.8656 60C35.8641 60 35.8625 60 35.8609 60C35.8594 60 35.8578 60 35.8563 60C35.8547 60 35.8531 60 35.8516 60C35.85 60 35.8484 60 35.8469 60C35.8453 60 35.8438 60 35.8422 60C35.8406 60 35.8391 60 35.8375 60C35.8359 60 35.8344 60 35.8328 60C35.8313 60 35.8297 60 35.8281 60C35.8266 60 35.825 60 35.8234 60C35.8219 60 35.8203 60 35.8188 60C35.8172 60 35.8156 60 35.8141 60C35.8125 60 35.8109 60 35.8094 60C35.8078 60 35.8063 60 35.8047 60C35.8031 60 35.8016 60 35.8 60C35.7984 60 35.7969 60 35.7953 60C35.7938 60 35.7922 60 35.7906 60C35.7891 60 35.7875 60 35.7859 60C35.7844 60 35.7828 60 35.7813 60C35.7797 60 35.7781 60 35.7766 60C35.775 60 35.7734 60 35.7719 60C35.7703 60 35.7688 60 35.7672 60C35.7656 60 35.7641 60 35.7625 60C35.7609 60 35.7594 60 35.7578 60C35.7563 60 35.7547 60 35.7531 60C35.7516 60 35.75 60 35.7484 60C35.7469 60 35.7453 60 35.7438 60C35.7422 60 35.7406 60 35.7391 60C35.7375 60 35.7359 60 35.7344 60C35.7328 60 35.7313 60 35.7297 60C35.7281 60 35.7266 60 35.725 60C35.7234 60 35.7219 60 35.7203 60C35.7188 60 35.7172 60 35.7156 60C35.7141 60 35.7125 60 35.7109 60C35.7094 60 35.7078 60 35.7063 60C35.7047 60 35.7031 60 35.7016 60C35.7 60 35.6984 60 35.6969 60C35.6953 60 35.6938 60 35.6922 60C35.6906 60 35.6891 60 35.6875 60C35.6859 60 35.6844 60 35.6828 60C35.6813 60 35.6797 60 35.6781 60C35.6766 60 35.675 60 35.6734 60C35.6719 60 35.6703 60 35.6688 60C35.6672 60 35.6656 60 35.6641 60C35.6625 60 35.6609 60 35.6594 60C35.6578 60 35.6563 60 35.6547 60C35.6531 60 35.6516 60 35.65 60C35.6484 60 35.6469 60 35.6453 60C35.6438 60 35.6422 60 35.6406 60C35.6391 60 35.6375 60 35.6359 60C35.6344 60 35.6328 60 35.6313 60C35.6297 60 35.6281 60 35.6266 60C35.625 60 35.6234 60 35.6219 60C35.6203 60 35.6188 60 35.6172 60C35.6156 60 35.6141 60 35.6125 60C35.6109 60 35.6094 60 35.6078 60C35.6063 60 35.6047 60 35.6031 60C35.6016 60 35.6 60 35.5984 60C35.5969 60 35.5953 60 35.5938 60C35.5922 60 35.5906 60 35.5891 60C35.5875 60 35.5859 60 35.5844 60C35.5828 60 35.5813 60 35.5797 60C35.5781 60 35.5766 60 35.575 60C35.5734 60 35.5719 60 35.5703 60C35.5688 60 35.5672 60 35.5656 60C35.5641 60 35.5625 60 35.5609 60C35.5594 60 35.5578 60 35.5563 60C35.5547 60 35.5531 60 35.5516 60C35.55 60 35.5484 60 35.5469 60C35.5453 60 35.5438 60 35.5422 60C35.5406 60 35.5391 60 35.5375 60C35.5359 60 35.5344 60 35.5328 60C35.5313 60 35.5297 60 35.5281 60C35.5266 60 35.525 60 35.5234 60C35.5219 60 35.5203 60 35.5188 60C35.5172 60 35.5156 60 35.5141 60C35.5125 60 35.5109 60 35.5094 60C35.5078 60 35.5063 60 35.5047 60C35.5031 60 35.5016 60 35.5 60C35.4984 60 35.4969 60 35.4953 60C35.4938 60 35.4922 60 35.4906 60C35.4891 60 35.4875 60 35.4859 60C35.4844 60 35.4828 60 35.4813 60C35.4797 60 35.4781 60 35.4766 60C35.475 60 35.4734 60 35.4719 60C35.4703 60 35.4688 60 35.4672 60C35.4656 60 35.4641 60 35.4625 60C35.4609 60 35.4594 60 35.4578 60C35.4563 60 35.4547 60 35.4531 60C35.4516 60 35.45 60 35.4484 60C35.4469 60 35.4453 60 35.4438 60C35.4422 60 35.4406 60 35.4391 60C35.4375 60 35.4359 60 35.4344 60C35.4328 60 35.4313 60 35.4297 60C35.4281 60 35.4266 60 35.425 60C35.4234 60 35.4219 60 35.4203 60C35.4188 60 35.4172 60 35.4156 60C35.4141 60 35.4125 60 35.4109 60C35.4094 60 35.4078 60 35.4063 60C35.4047 60 35.4031 60 35.4016 60C35.4 60 35.3984 60 35.3969 60C35.3953 60 35.3938 60 35.3922 60C35.3906 60 35.3891 60 35.3875 60C35.3859 60 35.3844 60 35.3828 60C35.3813 60 35.3797 60 35.3781 60C35.3766 60 35.375 60 35.3734 60C35.3719 60 35.3703 60 35.3688 60C35.3672 60 35.3656 60 35.3641 60C35.3625 60 35.3609 60 35.3594 60C35.3578 60 35.3563 60 35.3547 60C35.3531 60 35.3516 60 35.35 60C35.3484 60 35.3469 60 35.3453 60C35.3438 60 35.3422 60 35.3406 60C35.3391 60 35.3375 60 35.3359 60C35.3344 60 35.3328 60 35.3313 60C35.3297 60 35.3281 60 35.3266 60C35.325 60 35.3234 60 35.3219 60C35.3203 60 35.3188 60 35.3172 60C35.3156 60 35.3141 60 35.3125 60C35.3109 60 35.3094 60 35.3078 60C35.3063 60 35.3047 60 35.3031 60C35.3016 60 35.3 60 35.2984 60C35.2969 60 35.2953 60 35.2938 60C35.2922 60 35.2906 60 35.2891 60C35.2875 60 35.2859 60 35.2844 60C35.2828 60 35.2813 60 35.2797 60C35.2781 60 35.2766 60 35.275 60C35.2734 60 35.2719 60 35.2703 60C35.2688 60 35.2672 60 35.2656 60C35.2641 60 35.2625 60 35.2609 60C35.2594 60 35.2578 60 35.2563 60C35.2547 60 35.2531 60 35.2516 60C35.25 60 35.2484 60 35.2469 60C35.2453 60 35.2438 60 35.2422 60C35.2406 60 35.2391 60 35.2375 60C35.2359 60 35.2344 60 35.2328 60C35.2313 60 35.2297 60 35.2281 60C35.2266 60 35.225 60 35.2234 60C35.2219 60 35.2203 60 35.2188 60C35.2172 60 35.2156 60 35.2141 60C35.2125 60 35.2109 60 35.2094 60C35.2078 60 35.2063 60 35.2047 60C35.2031 60 35.2016 60 35.2 60C35.1984 60 35.1969 60 35.1953 60C35.1938 60 35.1922 60 35.1906 60C35.1891 60 35.1875 60 35.1859 60C35.1844 60 35.1828 60 35.1813 60C35.1797 60 35.1781 60 35.1766 60C35.175 60 35.1734 60 35.1719 60C35.1703 60 35.1688 60 35.1672 60C35.1656 60 35.1641 60 35.1625 60C35.1609 60 35.1594 60 35.1578 60C35.1563 60 35.1547 60 35.1531 60C35.1516 60 35.15 60 35.1484 60C35.1469 60 35.1453 60 35.1438 60C35.1422 60 35.1406 60 35.1391 60C35.1375 60 35.1359 60 35.1344 60C35.1328 60 35.1313 60 35.1297 60C35.1281 60 35.1266 60 35.125 60C35.1234 60 35.1219 60 35.1203 60C35.1188 60 35.1172 60 35.1156 60C35.1141 60 35.1125 60 35.1109 60C35.1094 60 35.1078 60 35.1063 60C35.1047 60 35.1031 60 35.1016 60C35.1 60 35.0984 60 35.0969 60C35.0953 60 35.0938 60 35.0922 60C35.0906 60 35.0891 60 35.0875 60C35.0859 60 35.0844 60 35.0828 60C35.0813 60 35.0797 60 35.0781 60C35.0766 60 35.075 60 35.0734 60C35.0719 60 35.0703 60 35.0688 60C35.0672 60 35.0656 60 35.0641 60C35.0625 60 35.0609 60 35.0594 60C35.0578 60 35.0563 60 35.0547 60C35.0531 60 35.0516 60 35.05 60C35.0484 60 35.0469 60 35.0453 60C35.0438 60 35.0422 60 35.0406 60C35.0391 60 35.0375 60 35.0359 60C35.0344 60 35.0328 60 35.0313 60C35.0297 60 35.0281 60 35.0266 60C35.025 60 35.0234 60 35.0219 60C35.0203 60 35.0188 60 35.0172 60C35.0156 60 35.0141 60 35.0125 60C35.0109 60 35.0094 60 35.0078 60C35.0063 60 35.0047 60 35.0031 60C35.0016 60 35 60 34.9984 60C34.9969 60 34.9953 60 34.9938 60C34.9922 60 34.9906 60 34.9891 60C34.9875 60 34.9859 60 34.9844 60C34.9828 60 34.9813 60 34.9797 60C34.9781 60 34.9766 60 34.975 60C34.9734 60 34.9719 60 34.9703 60C34.9688 60 34.9672 60 34.9656 60C34.9641 60 34.9625 60 34.9609 60C34.9594 60 34.9578 60 34.9563 60C34.9547 60 34.9531 60 34.9516 60C34.95 60 34.9484 60 34.9469 60C34.9453 60 34.9438 60 34.9422 60C34.9406 60 34.9391 60 34.9375 60C34.9359 60 34.9344 60 34.9328 60C34.9313 60 34.9297 60 34.9281 60C34.9266 60 34.925 60 34.9234 60C34.9219 60 34.9203 60 34.9188 60C34.9172 60 34.9156 60 34.9141 60C34.9125 60 34.9109 60 34.9094 60C34.9078 60 34.9063 60 34.9047 60C34.9031 60 34.9016 60 34.9 60C34.8984 60 34.8969 60 34.8953 60C34.8938 60 34.8922 60 34.8906 60C34.8891 60 34.8875 60 34.8859 60C34.8844 60 34.8828 60 34.8813 60C34.8797 60 34.8781 60 34.8766 60C34.875 60 34.8734 60 34.8719 60C34.8703 60 34.8688 60 34.8672 60C34.8656 60 34.8641 60 34.8625 60C34.8609 60 34.8594 60 34.8578 60C34.8563 60 34.8547 60 34.8531 60C34.8516 60 34.85 60 34.8484 60C34.8469 60 34.8453 60 34.8438 60C34.8422 60 34.8406 60 34.8391 60C34.8375 60 34.8359 60 34.8344 60C34.8328 60 34.8313 60 34.8297 60C34.8281 60 34.8266 60 34.825 60C34.8234 60 34.8219 60 34.8203 60C34.8188 60 34.8172 60 34.8156 60C34.8141 60 34.8125 60 34.8109 60C34.8094 60 34.8078 60 34.8063 60C34.8047 60 34.8031 60 34.8016 60C34.8 60 34.7984 60 34.7969 60C34.7953 60 34.7938 60 34.7922 60C34.7906 60 34.7891 60 34.7875 60C34.7859 60 34.7844 60 34.7828 60C34.7813 60 34.7797 60 34.7781 60C34.7766 60 34.775 60 34.7734 60C34.7719 60 34.7703 60 34.7688 60C34.7672 60 34.7656 60 34.7641 60C34.7625 60 34.7609 60 34.7594 60C34.7578 60 34.7563 60 34.7547 60C34.7531 60 34.7516 60 34.75 60C34.7484 60 34.7469 60 34.7453 60C34.7438 60 34.7422 60 34.7406 60C34.7391 60 34.7375 60 34.7359 60C34.7344 60 34.7328 60 34.7313 60C34.7297 60 34.7281 60 34.7266 60C34.725 60 34.7234 60 34.7219 60C34.7203 60 34.7188 60 34.7172 60C34.7156 60 34.7141 60 34.7125 60C34.7109 60 34.7094 60 34.7078 60C34.7063 60 34.7047 60 34.7031 60C34.7016 60 34.7 60 34.6984 60C34.6969 60 34.6953 60 34.6938 60C34.6922 60 34.6906 60 34.6891 60C34.6875 60 34.6859 60 34.6844 60C34.6828 60 34.6813 60 34.6797 60C34.6781 60 34.6766 60 34.675 60C34.6734 60 34.6719 60 34.6703 60C34.6688 60 34.6672 60 34.6656 60C34.6641 60 34.6625 60 34.6609 60C34.6594 60 34.6578 60 34.6563 60C34.6547 60 34.6531 60 34.6516 60C34.65 60 34.6484 60 34.6469 60C34.6453 60 34.6438 60 34.6422 60C34.6406 60 34.6391 60 34.6375 60C34.6359 60 34.6344 60 34.6328 60C34.6313 60 34.6297 60 34.6281 60C34.6266 60 34.625 60 34.6234 60C34.6219 60 34.6203 60 34.6188 60C34.6172 60 34.6156 60 34.6141 60C34.6125 60 34.6109 60 34.6094 60C34.6078 60 34.6063 60 34.6047 60C34.6031 60 34.6016 60 34.6 60C34.5984 60 34.5969 60 34.5953 60C34.5938 60 34.5922 60 34.5906 60C34.5891 60 34.5875 60 34.5859 60C34.5844 60 34.5828 60 34.5813 60C34.5797 60 34.5781 60 34.5766 60C34.575 60 34.5734 60 34.5719 60C34.5703 60 34.5688 60 34.5672 60C34.5656 60 34.5641 60 34.5625 60C34.5609 60 34.5594 60 34.5578 60C34.5563 60 34.5547 60 34.5531 60C34.5516 60 34.55 60 34.5484 60C34.5469 60 34.5453 60 34.5438 60C34.5422 60 34.5406 60 34.5391 60C34.5375 60 34.5359 60 34.5344 60C34.5328 60 34.5313 60 34.5297 60C34.5281 60 34.5266 60 34.525 60C34.5234 60 34.5219 60 34.5203 60C34.5188 60 34.5172 60 34.5156 60C34.5141 60 34.5125 60 34.5109 60C34.5094 60 34.5078 60 34.5063 60C34.5047 60 34.5031 60 34.5016 60C34.5 60 34.4984 60 34.4969 60C34.4953 60 34.4938 60 34.4922 60C34.4906 60 34.4891 60 34.4875 60C34.4859 60 34.4844 60 34.4828 60C34.4813 60 34.4797 60 34.4781 60C34.4766 60 34.475 60 34.4734 60C34.4719 60 34.4703 60 34.4688 60C34.4672 60 34.4656 60 34.4641 60C34.4625 60 34.4609 60 34.4594 60C34.4578 60 34.4563 60 34.4547 60C34.4531 60 34.4516 60 34.45 60C34.4484 60 34.4469 60 34.4453 60C34.4438 60 34.4422 60 34.4406 60C34.4391 60 34.4375 60 34.4359 60C34.4344 60 34.4328 60 34.4313 60C34.4297 60 34.4281 60 34.4266 60C34.425 60 34.4234 60 34.4219 60C34.4203 60 34.4188 60 34.4172 60C34.4156 60 34.4141 60 34.4125 60C34.4109 60 34.4094 60 34.4078 60C34.4063 60 34.4047 60 34.4031 60C34.4016 60 34.4 60 34.3984 60C34.3969 60 34.3953 60 34.3938 60C34.3922 60 34.3906 60 34.3891 60C34.3875 60 34.3859 60 34.3844 60C34.3828 60 34.3813 60 34.3797 60C34.3781 60 34.3766 60 34.375 60C34.3734 60 34.3719 60 34.3703 60C34.3688 60 34.3672 60 34.3656 60C34.3641 60 34.3625 60 34.3609 60C34.3594 60 34.3578 60 34.3563 60C34.3547 60 34.3531 60 34.3516 60C34.35 60 34.3484 60 34.3469 60C34.3453 60 34.3438 60 34.3422 60C34.3406 60 34.3391 60 34.3375 60C34.3359 60 34.3344 60 34.3328 60C34.3313 60 34.3297 60 34.3281 60C34.3266 60 34.325 60 34.3234 60C34.3219 60 34.3203 60 34.3188 60C34.3172 60 34.3156 60 34.3141 60C34.3125 60 34.3109 60 34.3094 60C34.3078 60 34.3063 60 34.3047 60C34.3031 60 34.3016 60 34.3 60C34.2984 60 34.2969 60 34.2953 60C34.2938 60 34.2922 60 34.2906 60C34.2891 60 34.2875 60 34.2859 60C34.2844 60 34.2828 60 34.2813 60C34.2797 60 34.2781 60 34.2766 60C34.275 60 34.2734 60 34.2719 60C34.2703 60 34.2688 60 34.2672 60C34.2656 60 34.2641 60 34.2625 60C34.2609 60 34.2594 60 34.2578 60C34.2563 60 34.2547 60 34.2531 60C34.2516 60 34.25 60 34.2484 60C34.2469 60 34.2453 60 34.2438 60C34.2422 60 34.2406 60 34.2391 60C34.2375 60 34.2359 60 34.2344 60C34.2328 60 34.2313 60 34.2297 60C34.2281 60 34.2266 60 34.225 60C34.2234 60 34.2219 60 34.2203 60C34.2188 60 34.2172 60 34.2156 60C34.2141 60 34.2125 60 34.2109 60C34.2094 60 34.2078 60 34.2063 60C34.2047 60 34.2031 60 34.2016 60C34.2 60 34.1984 60 34.1969 60C34.1953 60 34.1938 60 34.1922 60C34.1906 60 34.1891 60 34.1875 60C34.1859 60 34.1844 60 34.1828 60C34.1813 60 34.1797 60 34.1781 60C34.1766 60 34.175 60 34.1734 60C34.1719 60 34.1703 60 34.1688 60C34.1672 60 34.1656 60 34.1641 60C34.1625 60 34.1609 60 34.1594 60C34.1578 60 34.1563 60 34.1547 60C34.1531 60 34.1516 60 34.15 60C34.1484 60 34.1469 60 34.1453 60C34.1438 60 34.1422 60 34.1406 60C34.1391 60 34.1375 60 34.1359 60C34.1344 60 34.1328 60 34.1313 60C34.1297 60 34.1281 60 34.1266 60C34.125 60 34.1234 60 34.1219 60C34.1203 60 34.1188 60 34.1172 60C34.1156 60 34.1141 60 34.1125 60C34.1109 60 34.1094 60 34.1078 60C34.1063 60 34.1047 60 34.1031 60C34.1016 60 34.1 60 34.0984 60C34.0969 60 34.0953 60 34.0938 60C34.0922 60 34.0906 60 34.0891 60C34.0875 60 34.0859 60 34.0844 60C34.0828 60 34.0813 60 34.0797 60C34.0781 60 34.0766 60 34.075 60C34.0734 60 34.0719 60 34.0703 60C34.0688 60 34.0672 60 34.0656 60C34.0641 60 34.0625 60 34.0609 60C34.0594 60 34.0578 60 34.0563 60C34.0547 60 34.0531 60 34.0516 60C34.05 60 34.0484 60 34.0469 60C34.0453 60 34.0438 60 34.0422 60C34.0406 60 34.0391 60 34.0375 60C34.0359 60 34.0344 60 34.0328 60C34.0313 60 34.0297 60 34.0281 60C34.0266 60 34.025 60 34.0234 60C34.0219 60 34.0203 60 34.0188 60C34.0172 60 34.0156 60 34.0141 60C34.0125 60 34.0109 60 34.0094 60C34.0078 60 34.0063 60 34.0047 60C34.0031 60 34.0016 60 34 60C33.9984 60 33.9969 60 33.9953 60C33.9938 60 33.9922 60 33.9906 60C33.9891 60 33.9875 60 33.9859 60C33.9844 60 33.9828 60 33.9813 60C33.9797 60 33.9781 60 33.9766 60C33.975 60 33.9734 60 33.9719 60C33.9703 60 33.9688 60 33.9672 60C33.9656 60 33.9641 60 33.9625 60C33.9609 60 33.9594 60 33.9578 60C33.9563 60 33.9547 60 33.9531 60C33.9516 60 33.95 60 33.9484 60C33.9469 60 33.9453 60 33.9438 60C33.9422 60 33.9406 60 33.9391 60C33.9375 60 33.9359 60 33.9344 60C33.9328 60 33.9313 60 33.9297 60C33.9281 60 33.9266 60 33.925 60C33.9234 60 33.9219 60 33.9203 60C33.9188 60 33.9172 60 33.9156 60C33.9141 60 33.9125 60 33.9109 60C33.9094 60 33.9078 60 33.9063 60C33.9047 60 33.9031 60 33.9016 60C33.9 60 33.8984 60 33.8969 60C33.8953 60 33.8938 60 33.8922 60C33.8906 60 33.8891 60 33.8875 60C33.8859 60 33.8844 60 33.8828 60C33.8813 60 33.8797 60 33.8781 60C33.8766 60 33.875 60 33.8734 60C33.8719 60 33.8703 60 33.8688 60C33.8672 60 33.8656 60 33.8641 60C33.8625 60 33.8609 60 33.8594 60C33.8578 60 33.8563 60 33.8547 60C33.8531 60 33.8516 60 33.85 60C33.8484 60 33.8469 60 33.8453 60C33.8438 60 33.8422 60 33.8406 60C33.8391 60 33.8375 60 33.8359 60C33.8344 60 33.8328 60 33.8313 60C33.8297 60 33.8281 60 33.8266 60C33.825 60 33.8234 60 33.8219 60C33.8203 60 33.8188 60 33.8172 60C33.8156 60 33.8141 60 33.8125 60C33.8109 60 33.8094 60 33.8078 60C33.8063 60 33.8047 60 33.8031 60C33.8016 60 33.8 60 33.7984 60C33.7969 60 33.7953 60 33.7938 60C33.7922 60 33.7906 60 33.7891 60C33.7875 60 33.7859 60 33.7844 60C33.7828 60 33.7813 60 33.7797 60C33.7781 60 33.7766 60 33.775 60C33.7734 60 33.7719 60 33.7703 60C33.7688 60 33.7672 60 33.7656 60C33.7641 60 33.7625 60 33.7609 60C33.7594 60 33.7578 60 33.7563 60C33.7547 60 33.7531 60 33.7516 60C33.75 60 33.7484 60 33.7469 60C33.7453 60 33.7438 60 33.7422 60C33.7406 60 33.7391 60 33.7375 60C33.7359 60 33.7344 60 33.7328 60C33.7313 60 33.7297 60 33.7281 60C33.7266 60 33.725 60 33.7234 60C33.7219 60 33.7203 60 33.7188 60C33.7172 60 33.7156 60 33.7141 60C33.7125 60 33.7109 60 33.7094 60C33.7078 60 33.7063 60 33.7047 60C33.7031 60 33.7016 60 33.7 60C33.6984 60 33.6969 60 33.6953 60C33.6938 60 33.6922 60 33.6906 60C33.6891 60 33.6875 60 33.6859 60C33.6844 60 33.6828 60 33.6813 60C33.6797 60 33.6781 60 33.6766 60C33.675 60 33.6734 60 33.6719 60C33.6703 60 33.6688 60 33.6672 60C33.6656 60 33.6641 60 33.6625 60C33.6609 60 33.6594 60 33.6578 60C33.6563 60 33.6547 60 33.6531 60C33.6516 60 33.65 60 33.6484 60C33.6469 60 33.6453 60 33.6438 60C33.6422 60 33.6406 60 33.6391 60C33.6375 60 33.6359 60 33.6344 60C33.6328 60 33.6313 60 33.6297 60C33.6281 60 33.6266 60 33.625 60C33.6234 60 33.6219 60 33.6203 60C33.6188 60 33.6172 60 33.6156 60C33.6141 60 33.6125 60 33.6109 60C33.6094 60 33.6078 60 33.6063 60C33.6047 60 33.6031 60 33.6016 60C33.6 60 33.5984 60 33.5969 60C33.5953 60 33.5938 60 33.5922 60C33.5906 60 33.5891 60 33.5875 60C33.5859 60 33.5844 60 33.5828 60C33.5813 60 33.5797 60 33.5781 60C33.5766 60 33.575 60 33.5734 60C33.5719 60 33.5703 60 33.5688 60C33.5672 60 33.5656 60 33.5641 60C33.5625 60 33.5609 60 33.5594 60C33.5578 60 33.5563 60 33.5547 60C33.5531 60 33.5516 60 33.55 60V63V66C33.5516 66 33.5531 66 33.5547 66C33.5563 66 33.5578 66 33.5594 66C33.5609 66 33.5625 66 33.5641 66C33.5656 66 33.5672 66 33.5688 66C33.5703 66 33.5719 66 33.5734 66C33.575 66 33.5766 66 33.5781 66C33.5797 66 33.5813 66 33.5828 66C33.5844 66 33.5859 66 33.5875 66C33.5891 66 33.5906 66 33.5922 66C33.5938 66 33.5953 66 33.5969 66C33.5984 66 33.6 66 33.6016 66C33.6031 66 33.6047 66 33.6063 66C33.6078 66 33.6094 66 33.6109 66C33.6125 66 33.6141 66 33.6156 66C33.6172 66 33.6188 66 33.6203 66C33.6219 66 33.6234 66 33.625 66C33.6266 66 33.6281 66 33.6297 66C33.6313 66 33.6328 66 33.6344 66C33.6359 66 33.6375 66 33.6391 66C33.6406 66 33.6422 66 33.6438 66C33.6453 66 33.6469 66 33.6484 66C33.65 66 33.6516 66 33.6531 66C33.6547 66 33.6563 66 33.6578 66C33.6594 66 33.6609 66 33.6625 66C33.6641 66 33.6656 66 33.6672 66C33.6688 66 33.6703 66 33.6719 66C33.6734 66 33.675 66 33.6766 66C33.6781 66 33.6797 66 33.6813 66C33.6828 66 33.6844 66 33.6859 66C33.6875 66 33.6891 66 33.6906 66C33.6922 66 33.6938 66 33.6953 66C33.6969 66 33.6984 66 33.7 66C33.7016 66 33.7031 66 33.7047 66C33.7063 66 33.7078 66 33.7094 66C33.7109 66 33.7125 66 33.7141 66C33.7156 66 33.7172 66 33.7188 66C33.7203 66 33.7219 66 33.7234 66C33.725 66 33.7266 66 33.7281 66C33.7297 66 33.7313 66 33.7328 66C33.7344 66 33.7359 66 33.7375 66C33.7391 66 33.7406 66 33.7422 66C33.7438 66 33.7453 66 33.7469 66C33.7484 66 33.75 66 33.7516 66C33.7531 66 33.7547 66 33.7563 66C33.7578 66 33.7594 66 33.7609 66C33.7625 66 33.7641 66 33.7656 66C33.7672 66 33.7688 66 33.7703 66C33.7719 66 33.7734 66 33.775 66C33.7766 66 33.7781 66 33.7797 66C33.7813 66 33.7828 66 33.7844 66C33.7859 66 33.7875 66 33.7891 66C33.7906 66 33.7922 66 33.7938 66C33.7953 66 33.7969 66 33.7984 66C33.8 66 33.8016 66 33.8031 66C33.8047 66 33.8063 66 33.8078 66C33.8094 66 33.8109 66 33.8125 66C33.8141 66 33.8156 66 33.8172 66C33.8188 66 33.8203 66 33.8219 66C33.8234 66 33.825 66 33.8266 66C33.8281 66 33.8297 66 33.8313 66C33.8328 66 33.8344 66 33.8359 66C33.8375 66 33.8391 66 33.8406 66C33.8422 66 33.8438 66 33.8453 66C33.8469 66 33.8484 66 33.85 66C33.8516 66 33.8531 66 33.8547 66C33.8563 66 33.8578 66 33.8594 66C33.8609 66 33.8625 66 33.8641 66C33.8656 66 33.8672 66 33.8688 66C33.8703 66 33.8719 66 33.8734 66C33.875 66 33.8766 66 33.8781 66C33.8797 66 33.8813 66 33.8828 66C33.8844 66 33.8859 66 33.8875 66C33.8891 66 33.8906 66 33.8922 66C33.8938 66 33.8953 66 33.8969 66C33.8984 66 33.9 66 33.9016 66C33.9031 66 33.9047 66 33.9063 66C33.9078 66 33.9094 66 33.9109 66C33.9125 66 33.9141 66 33.9156 66C33.9172 66 33.9188 66 33.9203 66C33.9219 66 33.9234 66 33.925 66C33.9266 66 33.9281 66 33.9297 66C33.9313 66 33.9328 66 33.9344 66C33.9359 66 33.9375 66 33.9391 66C33.9406 66 33.9422 66 33.9438 66C33.9453 66 33.9469 66 33.9484 66C33.95 66 33.9516 66 33.9531 66C33.9547 66 33.9563 66 33.9578 66C33.9594 66 33.9609 66 33.9625 66C33.9641 66 33.9656 66 33.9672 66C33.9688 66 33.9703 66 33.9719 66C33.9734 66 33.975 66 33.9766 66C33.9781 66 33.9797 66 33.9813 66C33.9828 66 33.9844 66 33.9859 66C33.9875 66 33.9891 66 33.9906 66C33.9922 66 33.9938 66 33.9953 66C33.9969 66 33.9984 66 34 66C34.0016 66 34.0031 66 34.0047 66C34.0063 66 34.0078 66 34.0094 66C34.0109 66 34.0125 66 34.0141 66C34.0156 66 34.0172 66 34.0188 66C34.0203 66 34.0219 66 34.0234 66C34.025 66 34.0266 66 34.0281 66C34.0297 66 34.0313 66 34.0328 66C34.0344 66 34.0359 66 34.0375 66C34.0391 66 34.0406 66 34.0422 66C34.0438 66 34.0453 66 34.0469 66C34.0484 66 34.05 66 34.0516 66C34.0531 66 34.0547 66 34.0563 66C34.0578 66 34.0594 66 34.0609 66C34.0625 66 34.0641 66 34.0656 66C34.0672 66 34.0688 66 34.0703 66C34.0719 66 34.0734 66 34.075 66C34.0766 66 34.0781 66 34.0797 66C34.0813 66 34.0828 66 34.0844 66C34.0859 66 34.0875 66 34.0891 66C34.0906 66 34.0922 66 34.0938 66C34.0953 66 34.0969 66 34.0984 66C34.1 66 34.1016 66 34.1031 66C34.1047 66 34.1063 66 34.1078 66C34.1094 66 34.1109 66 34.1125 66C34.1141 66 34.1156 66 34.1172 66C34.1188 66 34.1203 66 34.1219 66C34.1234 66 34.125 66 34.1266 66C34.1281 66 34.1297 66 34.1313 66C34.1328 66 34.1344 66 34.1359 66C34.1375 66 34.1391 66 34.1406 66C34.1422 66 34.1438 66 34.1453 66C34.1469 66 34.1484 66 34.15 66C34.1516 66 34.1531 66 34.1547 66C34.1563 66 34.1578 66 34.1594 66C34.1609 66 34.1625 66 34.1641 66C34.1656 66 34.1672 66 34.1688 66C34.1703 66 34.1719 66 34.1734 66C34.175 66 34.1766 66 34.1781 66C34.1797 66 34.1813 66 34.1828 66C34.1844 66 34.1859 66 34.1875 66C34.1891 66 34.1906 66 34.1922 66C34.1938 66 34.1953 66 34.1969 66C34.1984 66 34.2 66 34.2016 66C34.2031 66 34.2047 66 34.2063 66C34.2078 66 34.2094 66 34.2109 66C34.2125 66 34.2141 66 34.2156 66C34.2172 66 34.2188 66 34.2203 66C34.2219 66 34.2234 66 34.225 66C34.2266 66 34.2281 66 34.2297 66C34.2313 66 34.2328 66 34.2344 66C34.2359 66 34.2375 66 34.2391 66C34.2406 66 34.2422 66 34.2438 66C34.2453 66 34.2469 66 34.2484 66C34.25 66 34.2516 66 34.2531 66C34.2547 66 34.2563 66 34.2578 66C34.2594 66 34.2609 66 34.2625 66C34.2641 66 34.2656 66 34.2672 66C34.2688 66 34.2703 66 34.2719 66C34.2734 66 34.275 66 34.2766 66C34.2781 66 34.2797 66 34.2813 66C34.2828 66 34.2844 66 34.2859 66C34.2875 66 34.2891 66 34.2906 66C34.2922 66 34.2938 66 34.2953 66C34.2969 66 34.2984 66 34.3 66C34.3016 66 34.3031 66 34.3047 66C34.3063 66 34.3078 66 34.3094 66C34.3109 66 34.3125 66 34.3141 66C34.3156 66 34.3172 66 34.3188 66C34.3203 66 34.3219 66 34.3234 66C34.325 66 34.3266 66 34.3281 66C34.3297 66 34.3313 66 34.3328 66C34.3344 66 34.3359 66 34.3375 66C34.3391 66 34.3406 66 34.3422 66C34.3438 66 34.3453 66 34.3469 66C34.3484 66 34.35 66 34.3516 66C34.3531 66 34.3547 66 34.3563 66C34.3578 66 34.3594 66 34.3609 66C34.3625 66 34.3641 66 34.3656 66C34.3672 66 34.3688 66 34.3703 66C34.3719 66 34.3734 66 34.375 66C34.3766 66 34.3781 66 34.3797 66C34.3813 66 34.3828 66 34.3844 66C34.3859 66 34.3875 66 34.3891 66C34.3906 66 34.3922 66 34.3938 66C34.3953 66 34.3969 66 34.3984 66C34.4 66 34.4016 66 34.4031 66C34.4047 66 34.4063 66 34.4078 66C34.4094 66 34.4109 66 34.4125 66C34.4141 66 34.4156 66 34.4172 66C34.4188 66 34.4203 66 34.4219 66C34.4234 66 34.425 66 34.4266 66C34.4281 66 34.4297 66 34.4313 66C34.4328 66 34.4344 66 34.4359 66C34.4375 66 34.4391 66 34.4406 66C34.4422 66 34.4438 66 34.4453 66C34.4469 66 34.4484 66 34.45 66C34.4516 66 34.4531 66 34.4547 66C34.4563 66 34.4578 66 34.4594 66C34.4609 66 34.4625 66 34.4641 66C34.4656 66 34.4672 66 34.4688 66C34.4703 66 34.4719 66 34.4734 66C34.475 66 34.4766 66 34.4781 66C34.4797 66 34.4813 66 34.4828 66C34.4844 66 34.4859 66 34.4875 66C34.4891 66 34.4906 66 34.4922 66C34.4938 66 34.4953 66 34.4969 66C34.4984 66 34.5 66 34.5016 66C34.5031 66 34.5047 66 34.5063 66C34.5078 66 34.5094 66 34.5109 66C34.5125 66 34.5141 66 34.5156 66C34.5172 66 34.5188 66 34.5203 66C34.5219 66 34.5234 66 34.525 66C34.5266 66 34.5281 66 34.5297 66C34.5313 66 34.5328 66 34.5344 66C34.5359 66 34.5375 66 34.5391 66C34.5406 66 34.5422 66 34.5438 66C34.5453 66 34.5469 66 34.5484 66C34.55 66 34.5516 66 34.5531 66C34.5547 66 34.5563 66 34.5578 66C34.5594 66 34.5609 66 34.5625 66C34.5641 66 34.5656 66 34.5672 66C34.5688 66 34.5703 66 34.5719 66C34.5734 66 34.575 66 34.5766 66C34.5781 66 34.5797 66 34.5813 66C34.5828 66 34.5844 66 34.5859 66C34.5875 66 34.5891 66 34.5906 66C34.5922 66 34.5938 66 34.5953 66C34.5969 66 34.5984 66 34.6 66C34.6016 66 34.6031 66 34.6047 66C34.6063 66 34.6078 66 34.6094 66C34.6109 66 34.6125 66 34.6141 66C34.6156 66 34.6172 66 34.6188 66C34.6203 66 34.6219 66 34.6234 66C34.625 66 34.6266 66 34.6281 66C34.6297 66 34.6313 66 34.6328 66C34.6344 66 34.6359 66 34.6375 66C34.6391 66 34.6406 66 34.6422 66C34.6438 66 34.6453 66 34.6469 66C34.6484 66 34.65 66 34.6516 66C34.6531 66 34.6547 66 34.6563 66C34.6578 66 34.6594 66 34.6609 66C34.6625 66 34.6641 66 34.6656 66C34.6672 66 34.6688 66 34.6703 66C34.6719 66 34.6734 66 34.675 66C34.6766 66 34.6781 66 34.6797 66C34.6813 66 34.6828 66 34.6844 66C34.6859 66 34.6875 66 34.6891 66C34.6906 66 34.6922 66 34.6938 66C34.6953 66 34.6969 66 34.6984 66C34.7 66 34.7016 66 34.7031 66C34.7047 66 34.7063 66 34.7078 66C34.7094 66 34.7109 66 34.7125 66C34.7141 66 34.7156 66 34.7172 66C34.7188 66 34.7203 66 34.7219 66C34.7234 66 34.725 66 34.7266 66C34.7281 66 34.7297 66 34.7313 66C34.7328 66 34.7344 66 34.7359 66C34.7375 66 34.7391 66 34.7406 66C34.7422 66 34.7438 66 34.7453 66C34.7469 66 34.7484 66 34.75 66C34.7516 66 34.7531 66 34.7547 66C34.7563 66 34.7578 66 34.7594 66C34.7609 66 34.7625 66 34.7641 66C34.7656 66 34.7672 66 34.7688 66C34.7703 66 34.7719 66 34.7734 66C34.775 66 34.7766 66 34.7781 66C34.7797 66 34.7813 66 34.7828 66C34.7844 66 34.7859 66 34.7875 66C34.7891 66 34.7906 66 34.7922 66C34.7938 66 34.7953 66 34.7969 66C34.7984 66 34.8 66 34.8016 66C34.8031 66 34.8047 66 34.8063 66C34.8078 66 34.8094 66 34.8109 66C34.8125 66 34.8141 66 34.8156 66C34.8172 66 34.8188 66 34.8203 66C34.8219 66 34.8234 66 34.825 66C34.8266 66 34.8281 66 34.8297 66C34.8313 66 34.8328 66 34.8344 66C34.8359 66 34.8375 66 34.8391 66C34.8406 66 34.8422 66 34.8438 66C34.8453 66 34.8469 66 34.8484 66C34.85 66 34.8516 66 34.8531 66C34.8547 66 34.8563 66 34.8578 66C34.8594 66 34.8609 66 34.8625 66C34.8641 66 34.8656 66 34.8672 66C34.8688 66 34.8703 66 34.8719 66C34.8734 66 34.875 66 34.8766 66C34.8781 66 34.8797 66 34.8813 66C34.8828 66 34.8844 66 34.8859 66C34.8875 66 34.8891 66 34.8906 66C34.8922 66 34.8938 66 34.8953 66C34.8969 66 34.8984 66 34.9 66C34.9016 66 34.9031 66 34.9047 66C34.9063 66 34.9078 66 34.9094 66C34.9109 66 34.9125 66 34.9141 66C34.9156 66 34.9172 66 34.9188 66C34.9203 66 34.9219 66 34.9234 66C34.925 66 34.9266 66 34.9281 66C34.9297 66 34.9313 66 34.9328 66C34.9344 66 34.9359 66 34.9375 66C34.9391 66 34.9406 66 34.9422 66C34.9438 66 34.9453 66 34.9469 66C34.9484 66 34.95 66 34.9516 66C34.9531 66 34.9547 66 34.9563 66C34.9578 66 34.9594 66 34.9609 66C34.9625 66 34.9641 66 34.9656 66C34.9672 66 34.9688 66 34.9703 66C34.9719 66 34.9734 66 34.975 66C34.9766 66 34.9781 66 34.9797 66C34.9813 66 34.9828 66 34.9844 66C34.9859 66 34.9875 66 34.9891 66C34.9906 66 34.9922 66 34.9938 66C34.9953 66 34.9969 66 34.9984 66C35 66 35.0016 66 35.0031 66C35.0047 66 35.0063 66 35.0078 66C35.0094 66 35.0109 66 35.0125 66C35.0141 66 35.0156 66 35.0172 66C35.0188 66 35.0203 66 35.0219 66C35.0234 66 35.025 66 35.0266 66C35.0281 66 35.0297 66 35.0313 66C35.0328 66 35.0344 66 35.0359 66C35.0375 66 35.0391 66 35.0406 66C35.0422 66 35.0438 66 35.0453 66C35.0469 66 35.0484 66 35.05 66C35.0516 66 35.0531 66 35.0547 66C35.0563 66 35.0578 66 35.0594 66C35.0609 66 35.0625 66 35.0641 66C35.0656 66 35.0672 66 35.0688 66C35.0703 66 35.0719 66 35.0734 66C35.075 66 35.0766 66 35.0781 66C35.0797 66 35.0813 66 35.0828 66C35.0844 66 35.0859 66 35.0875 66C35.0891 66 35.0906 66 35.0922 66C35.0938 66 35.0953 66 35.0969 66C35.0984 66 35.1 66 35.1016 66C35.1031 66 35.1047 66 35.1063 66C35.1078 66 35.1094 66 35.1109 66C35.1125 66 35.1141 66 35.1156 66C35.1172 66 35.1188 66 35.1203 66C35.1219 66 35.1234 66 35.125 66C35.1266 66 35.1281 66 35.1297 66C35.1313 66 35.1328 66 35.1344 66C35.1359 66 35.1375 66 35.1391 66C35.1406 66 35.1422 66 35.1438 66C35.1453 66 35.1469 66 35.1484 66C35.15 66 35.1516 66 35.1531 66C35.1547 66 35.1563 66 35.1578 66C35.1594 66 35.1609 66 35.1625 66C35.1641 66 35.1656 66 35.1672 66C35.1688 66 35.1703 66 35.1719 66C35.1734 66 35.175 66 35.1766 66C35.1781 66 35.1797 66 35.1813 66C35.1828 66 35.1844 66 35.1859 66C35.1875 66 35.1891 66 35.1906 66C35.1922 66 35.1938 66 35.1953 66C35.1969 66 35.1984 66 35.2 66C35.2016 66 35.2031 66 35.2047 66C35.2063 66 35.2078 66 35.2094 66C35.2109 66 35.2125 66 35.2141 66C35.2156 66 35.2172 66 35.2188 66C35.2203 66 35.2219 66 35.2234 66C35.225 66 35.2266 66 35.2281 66C35.2297 66 35.2313 66 35.2328 66C35.2344 66 35.2359 66 35.2375 66C35.2391 66 35.2406 66 35.2422 66C35.2438 66 35.2453 66 35.2469 66C35.2484 66 35.25 66 35.2516 66C35.2531 66 35.2547 66 35.2563 66C35.2578 66 35.2594 66 35.2609 66C35.2625 66 35.2641 66 35.2656 66C35.2672 66 35.2688 66 35.2703 66C35.2719 66 35.2734 66 35.275 66C35.2766 66 35.2781 66 35.2797 66C35.2813 66 35.2828 66 35.2844 66C35.2859 66 35.2875 66 35.2891 66C35.2906 66 35.2922 66 35.2938 66C35.2953 66 35.2969 66 35.2984 66C35.3 66 35.3016 66 35.3031 66C35.3047 66 35.3063 66 35.3078 66C35.3094 66 35.3109 66 35.3125 66C35.3141 66 35.3156 66 35.3172 66C35.3188 66 35.3203 66 35.3219 66C35.3234 66 35.325 66 35.3266 66C35.3281 66 35.3297 66 35.3313 66C35.3328 66 35.3344 66 35.3359 66C35.3375 66 35.3391 66 35.3406 66C35.3422 66 35.3438 66 35.3453 66C35.3469 66 35.3484 66 35.35 66C35.3516 66 35.3531 66 35.3547 66C35.3563 66 35.3578 66 35.3594 66C35.3609 66 35.3625 66 35.3641 66C35.3656 66 35.3672 66 35.3688 66C35.3703 66 35.3719 66 35.3734 66C35.375 66 35.3766 66 35.3781 66C35.3797 66 35.3813 66 35.3828 66C35.3844 66 35.3859 66 35.3875 66C35.3891 66 35.3906 66 35.3922 66C35.3938 66 35.3953 66 35.3969 66C35.3984 66 35.4 66 35.4016 66C35.4031 66 35.4047 66 35.4063 66C35.4078 66 35.4094 66 35.4109 66C35.4125 66 35.4141 66 35.4156 66C35.4172 66 35.4188 66 35.4203 66C35.4219 66 35.4234 66 35.425 66C35.4266 66 35.4281 66 35.4297 66C35.4313 66 35.4328 66 35.4344 66C35.4359 66 35.4375 66 35.4391 66C35.4406 66 35.4422 66 35.4438 66C35.4453 66 35.4469 66 35.4484 66C35.45 66 35.4516 66 35.4531 66C35.4547 66 35.4563 66 35.4578 66C35.4594 66 35.4609 66 35.4625 66C35.4641 66 35.4656 66 35.4672 66C35.4688 66 35.4703 66 35.4719 66C35.4734 66 35.475 66 35.4766 66C35.4781 66 35.4797 66 35.4813 66C35.4828 66 35.4844 66 35.4859 66C35.4875 66 35.4891 66 35.4906 66C35.4922 66 35.4938 66 35.4953 66C35.4969 66 35.4984 66 35.5 66C35.5016 66 35.5031 66 35.5047 66C35.5063 66 35.5078 66 35.5094 66C35.5109 66 35.5125 66 35.5141 66C35.5156 66 35.5172 66 35.5188 66C35.5203 66 35.5219 66 35.5234 66C35.525 66 35.5266 66 35.5281 66C35.5297 66 35.5313 66 35.5328 66C35.5344 66 35.5359 66 35.5375 66C35.5391 66 35.5406 66 35.5422 66C35.5438 66 35.5453 66 35.5469 66C35.5484 66 35.55 66 35.5516 66C35.5531 66 35.5547 66 35.5563 66C35.5578 66 35.5594 66 35.5609 66C35.5625 66 35.5641 66 35.5656 66C35.5672 66 35.5688 66 35.5703 66C35.5719 66 35.5734 66 35.575 66C35.5766 66 35.5781 66 35.5797 66C35.5813 66 35.5828 66 35.5844 66C35.5859 66 35.5875 66 35.5891 66C35.5906 66 35.5922 66 35.5938 66C35.5953 66 35.5969 66 35.5984 66C35.6 66 35.6016 66 35.6031 66C35.6047 66 35.6063 66 35.6078 66C35.6094 66 35.6109 66 35.6125 66C35.6141 66 35.6156 66 35.6172 66C35.6188 66 35.6203 66 35.6219 66C35.6234 66 35.625 66 35.6266 66C35.6281 66 35.6297 66 35.6313 66C35.6328 66 35.6344 66 35.6359 66C35.6375 66 35.6391 66 35.6406 66C35.6422 66 35.6438 66 35.6453 66C35.6469 66 35.6484 66 35.65 66C35.6516 66 35.6531 66 35.6547 66C35.6563 66 35.6578 66 35.6594 66C35.6609 66 35.6625 66 35.6641 66C35.6656 66 35.6672 66 35.6688 66C35.6703 66 35.6719 66 35.6734 66C35.675 66 35.6766 66 35.6781 66C35.6797 66 35.6813 66 35.6828 66C35.6844 66 35.6859 66 35.6875 66C35.6891 66 35.6906 66 35.6922 66C35.6938 66 35.6953 66 35.6969 66C35.6984 66 35.7 66 35.7016 66C35.7031 66 35.7047 66 35.7063 66C35.7078 66 35.7094 66 35.7109 66C35.7125 66 35.7141 66 35.7156 66C35.7172 66 35.7188 66 35.7203 66C35.7219 66 35.7234 66 35.725 66C35.7266 66 35.7281 66 35.7297 66C35.7313 66 35.7328 66 35.7344 66C35.7359 66 35.7375 66 35.7391 66C35.7406 66 35.7422 66 35.7438 66C35.7453 66 35.7469 66 35.7484 66C35.75 66 35.7516 66 35.7531 66C35.7547 66 35.7563 66 35.7578 66C35.7594 66 35.7609 66 35.7625 66C35.7641 66 35.7656 66 35.7672 66C35.7688 66 35.7703 66 35.7719 66C35.7734 66 35.775 66 35.7766 66C35.7781 66 35.7797 66 35.7813 66C35.7828 66 35.7844 66 35.7859 66C35.7875 66 35.7891 66 35.7906 66C35.7922 66 35.7938 66 35.7953 66C35.7969 66 35.7984 66 35.8 66C35.8016 66 35.8031 66 35.8047 66C35.8063 66 35.8078 66 35.8094 66C35.8109 66 35.8125 66 35.8141 66C35.8156 66 35.8172 66 35.8188 66C35.8203 66 35.8219 66 35.8234 66C35.825 66 35.8266 66 35.8281 66C35.8297 66 35.8313 66 35.8328 66C35.8344 66 35.8359 66 35.8375 66C35.8391 66 35.8406 66 35.8422 66C35.8438 66 35.8453 66 35.8469 66C35.8484 66 35.85 66 35.8516 66C35.8531 66 35.8547 66 35.8563 66C35.8578 66 35.8594 66 35.8609 66C35.8625 66 35.8641 66 35.8656 66C35.8672 66 35.8688 66 35.8703 66C35.8719 66 35.8734 66 35.875 66C35.8766 66 35.8781 66 35.8797 66C35.8813 66 35.8828 66 35.8844 66C35.8859 66 35.8875 66 35.8891 66C35.8906 66 35.8922 66 35.8938 66C35.8953 66 35.8969 66 35.8984 66C35.9 66 35.9016 66 35.9031 66C35.9047 66 35.9063 66 35.9078 66C35.9094 66 35.9109 66 35.9125 66C35.9141 66 35.9156 66 35.9172 66C35.9188 66 35.9203 66 35.9219 66C35.9234 66 35.925 66 35.9266 66C35.9281 66 35.9297 66 35.9313 66C35.9328 66 35.9344 66 35.9359 66C35.9375 66 35.9391 66 35.9406 66C35.9422 66 35.9438 66 35.9453 66C35.9469 66 35.9484 66 35.95 66V63ZM33.55 63V60H10V63V66H33.55V63ZM10 63H7V108H10H13V63H10ZM10 108V105H7V108V111H10V108ZM33.55 60V63C44.9487 63 54.245 60.5164 61.0552 55.1576L59.2 52.8L57.3448 50.4424C51.955 54.6836 44.1513 57 33.55 57V60ZM59.2 52.8L61.0365 55.1722C68.0289 49.7587 71.5 42.2516 71.5 33H68.5H65.5C65.5 40.5484 62.7711 46.2413 57.3635 50.4278L59.2 52.8ZM68.5 33H71.5C71.5 23.7484 68.0289 16.2412 61.0365 10.8278L59.2 13.2L57.3635 15.5722C62.7711 19.7587 65.5 25.4516 65.5 33H68.5ZM59.2 13.2L61.0552 10.8424C54.245 5.48356 44.9487 3 33.55 3V6V9C44.1513 9 51.955 11.3164 57.3448 15.5576L59.2 13.2ZM33.55 6V3H10V6V9H33.55V6ZM10 6H7V60H10H13V6H10ZM10 60V63H33.55V60V57H10V60Z" fill="black" mask="url(#path-1-outside-1_1_3)"/>
</g>
<defs>
<filter id="filter0_d_1_3" x="0" y="-7.62939e-06" width="92.445" height="119" filterUnits="userSpaceOnUse" color-interpolation-filters="sRGB">
<feFlood flood-opacity="0" result="BackgroundImageFix"/>
<feColorMatrix in="SourceAlpha" type="matrix" values="0 0 0 0 0 0 0 0 0 0 0 0 0 0 0 0 0 0 127 0" result="hardAlpha"/>
<feOffset dy="4"/>
<feGaussianBlur stdDeviation="2"/>
<feComposite in2="hardAlpha" operator="out"/>
<feColorMatrix type="matrix" values="0 0 0 0 0 0 0 0 0 0 0 0 0 0 0 0 0 0 0.25 0"/>
<feBlend mode="normal" in2="BackgroundImageFix" result="effect1_dropShadow_1_3"/>
<feBlend mode="normal" in="SourceGraphic" in2="effect1_dropShadow_1_3" result="shape"/>
</filter>
</defs>
</svg>
